<svg width="501" height="600" viewBox="0 0 501 600" fill="none" xmlns="http://www.w3.org/2000/svg">
<g clip-path="url(#clip0_15610_11998)">
<rect width="500" height="600" rx="36" fill="url(#paint0_linear_15610_11998)"/>
<path d="M407.266 82.989V59.7163H410.663V68.364H410.868C411.065 68.0004 411.349 67.5799 411.72 67.1027C412.091 66.6254 412.607 66.2087 413.266 65.8527C413.925 65.489 414.796 65.3072 415.879 65.3072C417.288 65.3072 418.546 65.6633 419.652 66.3754C420.758 67.0875 421.625 68.114 422.254 69.4549C422.891 70.7959 423.209 72.4095 423.209 74.2959C423.209 76.1822 422.894 77.7996 422.266 79.1481C421.637 80.489 420.773 81.5231 419.675 82.2504C418.576 82.9701 417.322 83.3299 415.913 83.3299C414.853 83.3299 413.985 83.1519 413.311 82.7959C412.644 82.4398 412.122 82.0231 411.743 81.5459C411.364 81.0686 411.072 80.6443 410.868 80.2731H410.584V82.989H407.266ZM410.595 74.2618C410.595 75.489 410.773 76.5648 411.129 77.489C411.485 78.4133 412 79.1368 412.675 79.6595C413.349 80.1746 414.175 80.4322 415.152 80.4322C416.167 80.4322 417.016 80.1633 417.697 79.6254C418.379 79.0799 418.894 78.3413 419.243 77.4095C419.599 76.4777 419.777 75.4284 419.777 74.2618C419.777 73.1102 419.603 72.0762 419.254 71.1595C418.913 70.2428 418.398 69.5193 417.709 68.989C417.027 68.4587 416.175 68.1936 415.152 68.1936C414.167 68.1936 413.334 68.4474 412.652 68.9549C411.978 69.4625 411.466 70.1709 411.118 71.0799C410.769 71.989 410.595 73.0496 410.595 74.2618Z" fill="black"/>
<path d="M398.379 75.7506V65.5347H401.788V82.9892H398.447V79.9665H398.265C397.864 80.8983 397.22 81.6748 396.334 82.296C395.455 82.9097 394.36 83.2165 393.05 83.2165C391.928 83.2165 390.936 82.9703 390.072 82.4778C389.216 81.9778 388.542 81.2392 388.05 80.2619C387.565 79.2847 387.322 78.0763 387.322 76.6369V65.5347H390.72V76.2278C390.72 77.4172 391.05 78.3642 391.709 79.0688C392.368 79.7733 393.224 80.1256 394.277 80.1256C394.913 80.1256 395.546 79.9665 396.175 79.6483C396.811 79.3301 397.337 78.8491 397.754 78.2051C398.178 77.5612 398.387 76.743 398.379 75.7506Z" fill="black"/>
<path d="M382.111 59.7163V82.989H378.713V59.7163H382.111Z" fill="black"/>
<path d="M374.144 67.2848H370.599C370.462 66.5272 370.208 65.8606 369.837 65.2848C369.466 64.709 369.011 64.2204 368.474 63.8189C367.936 63.4174 367.333 63.1143 366.667 62.9098C366.008 62.7053 365.307 62.603 364.564 62.603C363.224 62.603 362.023 62.9401 360.962 63.6143C359.909 64.2886 359.076 65.2772 358.462 66.5803C357.856 67.8833 357.553 69.4742 357.553 71.353C357.553 73.2469 357.856 74.8454 358.462 76.1484C359.076 77.4515 359.913 78.4363 360.974 79.103C362.034 79.7696 363.227 80.103 364.553 80.103C365.288 80.103 365.985 80.0045 366.644 79.8075C367.311 79.603 367.913 79.3037 368.451 78.9098C368.989 78.5159 369.443 78.0348 369.814 77.4666C370.193 76.8909 370.455 76.2318 370.599 75.4893L374.144 75.5007C373.955 76.6447 373.587 77.6977 373.042 78.6598C372.504 79.6143 371.811 80.4401 370.962 81.1371C370.121 81.8265 369.159 82.3606 368.076 82.7393C366.992 83.1181 365.811 83.3075 364.53 83.3075C362.515 83.3075 360.72 82.8303 359.144 81.8757C357.568 80.9136 356.326 79.5386 355.417 77.7507C354.515 75.9628 354.064 73.8303 354.064 71.353C354.064 68.8681 354.519 66.7356 355.428 64.9553C356.337 63.1674 357.58 61.7962 359.155 60.8416C360.731 59.8795 362.523 59.3984 364.53 59.3984C365.765 59.3984 366.917 59.5765 367.985 59.9325C369.061 60.281 370.027 60.7962 370.883 61.478C371.739 62.1522 372.447 62.978 373.008 63.9553C373.568 64.925 373.947 66.0348 374.144 67.2848Z" fill="black"/>
<path d="M340.718 69.7963L337.638 70.3417C337.509 69.9478 337.305 69.5728 337.024 69.2167C336.752 68.8606 336.38 68.569 335.911 68.3417C335.441 68.1144 334.854 68.0008 334.149 68.0008C333.187 68.0008 332.384 68.2167 331.74 68.6485C331.096 69.0728 330.774 69.622 330.774 70.2963C330.774 70.8796 330.99 71.3493 331.422 71.7053C331.854 72.0614 332.551 72.3531 333.513 72.5803L336.286 73.2167C337.892 73.5879 339.089 74.1599 339.877 74.9326C340.664 75.7053 341.058 76.7091 341.058 77.944C341.058 78.9894 340.755 79.9213 340.149 80.7394C339.551 81.55 338.714 82.1864 337.638 82.6485C336.57 83.1106 335.331 83.3417 333.922 83.3417C331.968 83.3417 330.373 82.925 329.138 82.0917C327.903 81.2508 327.146 80.0576 326.865 78.5122L330.149 78.0122C330.354 78.8682 330.774 79.5159 331.411 79.9553C332.047 80.3872 332.877 80.6031 333.899 80.6031C335.013 80.6031 335.903 80.372 336.57 79.9099C337.236 79.4402 337.57 78.8682 337.57 78.194C337.57 77.6485 337.365 77.1902 336.956 76.819C336.555 76.4478 335.937 76.1675 335.104 75.9781L332.149 75.3303C330.521 74.9591 329.316 74.3682 328.536 73.5576C327.763 72.747 327.377 71.7205 327.377 70.4781C327.377 69.4478 327.664 68.5463 328.24 67.7735C328.816 67.0008 329.611 66.3985 330.627 65.9667C331.642 65.5273 332.805 65.3076 334.115 65.3076C336.002 65.3076 337.486 65.7167 338.57 66.5349C339.653 67.3455 340.369 68.4326 340.718 69.7963Z" fill="black"/>
<path d="M314.717 82.9893V65.5348H318.001V68.3075H318.183C318.501 67.3681 319.062 66.6295 319.865 66.0916C320.675 65.5462 321.592 65.2734 322.615 65.2734C322.827 65.2734 323.077 65.281 323.365 65.2962C323.66 65.3113 323.891 65.3303 324.058 65.353V68.603C323.921 68.5651 323.679 68.5234 323.33 68.478C322.982 68.425 322.633 68.3984 322.285 68.3984C321.482 68.3984 320.766 68.5689 320.137 68.9098C319.516 69.2431 319.024 69.709 318.66 70.3075C318.296 70.8984 318.115 71.5727 318.115 72.3303V82.9893H314.717Z" fill="black"/>
<path d="M302.817 83.3417C301.097 83.3417 299.616 82.9743 298.373 82.2394C297.139 81.497 296.184 80.4553 295.51 79.1144C294.843 77.766 294.51 76.1864 294.51 74.3758C294.51 72.5879 294.843 71.0122 295.51 69.6485C296.184 68.2849 297.123 67.2205 298.328 66.4553C299.54 65.6902 300.957 65.3076 302.578 65.3076C303.563 65.3076 304.517 65.4705 305.442 65.7963C306.366 66.122 307.195 66.6334 307.93 67.3303C308.665 68.0273 309.245 68.9326 309.669 70.0463C310.093 71.1523 310.305 72.497 310.305 74.0803V75.2849H296.43V72.7394H306.976C306.976 71.8455 306.794 71.0538 306.43 70.3644C306.067 69.6675 305.555 69.1182 304.896 68.7167C304.245 68.3152 303.479 68.1144 302.601 68.1144C301.646 68.1144 300.813 68.3493 300.101 68.819C299.396 69.2811 298.851 69.8872 298.464 70.6372C298.086 71.3796 297.896 72.1864 297.896 73.0576V75.0463C297.896 76.2129 298.101 77.2053 298.51 78.0235C298.926 78.8417 299.506 79.4667 300.248 79.8985C300.991 80.3228 301.858 80.5349 302.851 80.5349C303.495 80.5349 304.082 80.444 304.612 80.2622C305.142 80.0728 305.601 79.7925 305.987 79.4213C306.373 79.05 306.669 78.5917 306.873 78.0463L310.089 78.6258C309.832 79.5728 309.37 80.4023 308.703 81.1144C308.044 81.819 307.214 82.3682 306.214 82.7622C305.222 83.1485 304.089 83.3417 302.817 83.3417Z" fill="black"/>
<path d="M281.157 83.3299C279.748 83.3299 278.49 82.9701 277.384 82.2504C276.286 81.5231 275.422 80.489 274.793 79.1481C274.172 77.7996 273.861 76.1822 273.861 74.2959C273.861 72.4095 274.176 70.7959 274.805 69.4549C275.441 68.114 276.312 67.0875 277.418 66.3754C278.524 65.6633 279.778 65.3072 281.18 65.3072C282.263 65.3072 283.134 65.489 283.793 65.8527C284.46 66.2087 284.975 66.6254 285.339 67.1027C285.71 67.5799 285.998 68.0004 286.202 68.364H286.407V59.7163H289.805V82.989H286.486V80.2731H286.202C285.998 80.6443 285.702 81.0686 285.316 81.5459C284.937 82.0231 284.414 82.4398 283.748 82.7959C283.081 83.1519 282.217 83.3299 281.157 83.3299ZM281.907 80.4322C282.884 80.4322 283.71 80.1746 284.384 79.6595C285.066 79.1368 285.581 78.4133 285.93 77.489C286.286 76.5648 286.464 75.489 286.464 74.2618C286.464 73.0496 286.289 71.989 285.941 71.0799C285.592 70.1709 285.081 69.4625 284.407 68.9549C283.733 68.4474 282.899 68.1936 281.907 68.1936C280.884 68.1936 280.032 68.4587 279.35 68.989C278.668 69.5193 278.153 70.2428 277.805 71.1595C277.464 72.0762 277.293 73.1102 277.293 74.2618C277.293 75.4284 277.467 76.4777 277.816 77.4095C278.164 78.3413 278.68 79.0799 279.361 79.6254C280.051 80.1633 280.899 80.4322 281.907 80.4322Z" fill="black"/>
<path d="M258.257 72.6258V82.9894H254.859V65.5349H258.121V68.3758H258.337C258.738 67.4516 259.367 66.7091 260.223 66.1485C261.087 65.5879 262.174 65.3076 263.484 65.3076C264.674 65.3076 265.715 65.5576 266.609 66.0576C267.503 66.55 268.196 67.2849 268.689 68.2622C269.181 69.2394 269.428 70.4478 269.428 71.8872V82.9894H266.03V72.2963C266.03 71.0311 265.7 70.0425 265.041 69.3303C264.382 68.6106 263.477 68.2508 262.325 68.2508C261.537 68.2508 260.837 68.4213 260.223 68.7622C259.617 69.1031 259.136 69.6031 258.78 70.2622C258.431 70.9137 258.257 71.7016 258.257 72.6258Z" fill="black"/>
<path d="M246.244 75.7506V65.5347H249.653V82.9892H246.312V79.9665H246.131C245.729 80.8983 245.085 81.6748 244.199 82.296C243.32 82.9097 242.225 83.2165 240.915 83.2165C239.794 83.2165 238.801 82.9703 237.938 82.4778C237.081 81.9778 236.407 81.2392 235.915 80.2619C235.43 79.2847 235.188 78.0763 235.188 76.6369V65.5347H238.585V76.2278C238.585 77.4172 238.915 78.3642 239.574 79.0688C240.233 79.7733 241.089 80.1256 242.142 80.1256C242.778 80.1256 243.411 79.9665 244.04 79.6483C244.676 79.3301 245.203 78.8491 245.619 78.2051C246.044 77.5612 246.252 76.743 246.244 75.7506Z" fill="black"/>
<path d="M222.619 83.3417C220.982 83.3417 219.554 82.9667 218.335 82.2167C217.115 81.4667 216.168 80.4175 215.494 79.069C214.82 77.7205 214.482 76.1447 214.482 74.3417C214.482 72.5311 214.82 70.9478 215.494 69.5917C216.168 68.2356 217.115 67.1826 218.335 66.4326C219.554 65.6826 220.982 65.3076 222.619 65.3076C224.255 65.3076 225.683 65.6826 226.903 66.4326C228.123 67.1826 229.07 68.2356 229.744 69.5917C230.418 70.9478 230.755 72.5311 230.755 74.3417C230.755 76.1447 230.418 77.7205 229.744 79.069C229.07 80.4175 228.123 81.4667 226.903 82.2167C225.683 82.9667 224.255 83.3417 222.619 83.3417ZM222.63 80.4894C223.691 80.4894 224.57 80.2091 225.267 79.6485C225.963 79.0879 226.479 78.3417 226.812 77.4099C227.153 76.4781 227.323 75.4516 227.323 74.3303C227.323 73.2167 227.153 72.194 226.812 71.2622C226.479 70.3228 225.963 69.569 225.267 69.0008C224.57 68.4326 223.691 68.1485 222.63 68.1485C221.562 68.1485 220.676 68.4326 219.971 69.0008C219.274 69.569 218.755 70.3228 218.414 71.2622C218.081 72.194 217.914 73.2167 217.914 74.3303C217.914 75.4516 218.081 76.4781 218.414 77.4099C218.755 78.3417 219.274 79.0879 219.971 79.6485C220.676 80.2091 221.562 80.4894 222.63 80.4894Z" fill="black"/>
<path d="M197.43 82.989V59.7163H211.861V62.739H200.941V69.8299H210.827V72.8413H200.941V82.989H197.43Z" fill="black"/>
<path d="M171.681 72.6258V82.9894H168.283V65.5349H171.545V68.3758H171.76C172.162 67.4516 172.791 66.7091 173.647 66.1485C174.51 65.5879 175.598 65.3076 176.908 65.3076C178.098 65.3076 179.139 65.5576 180.033 66.0576C180.927 66.55 181.62 67.2849 182.113 68.2622C182.605 69.2394 182.851 70.4478 182.851 71.8872V82.9894H179.454V72.2963C179.454 71.0311 179.124 70.0425 178.465 69.3303C177.806 68.6106 176.901 68.2508 175.749 68.2508C174.961 68.2508 174.26 68.4213 173.647 68.7622C173.041 69.1031 172.56 69.6031 172.204 70.2622C171.855 70.9137 171.681 71.7016 171.681 72.6258Z" fill="black"/>
<path d="M155.714 83.3417C154.078 83.3417 152.65 82.9667 151.43 82.2167C150.211 81.4667 149.264 80.4175 148.589 79.069C147.915 77.7205 147.578 76.1447 147.578 74.3417C147.578 72.5311 147.915 70.9478 148.589 69.5917C149.264 68.2356 150.211 67.1826 151.43 66.4326C152.65 65.6826 154.078 65.3076 155.714 65.3076C157.351 65.3076 158.779 65.6826 159.999 66.4326C161.218 67.1826 162.165 68.2356 162.839 69.5917C163.514 70.9478 163.851 72.5311 163.851 74.3417C163.851 76.1447 163.514 77.7205 162.839 79.069C162.165 80.4175 161.218 81.4667 159.999 82.2167C158.779 82.9667 157.351 83.3417 155.714 83.3417ZM155.726 80.4894C156.786 80.4894 157.665 80.2091 158.362 79.6485C159.059 79.0879 159.574 78.3417 159.908 77.4099C160.249 76.4781 160.419 75.4516 160.419 74.3303C160.419 73.2167 160.249 72.194 159.908 71.2622C159.574 70.3228 159.059 69.569 158.362 69.0008C157.665 68.4326 156.786 68.1485 155.726 68.1485C154.658 68.1485 153.771 68.4326 153.067 69.0008C152.37 69.569 151.851 70.3228 151.51 71.2622C151.177 72.194 151.01 73.2167 151.01 74.3303C151.01 75.4516 151.177 76.4781 151.51 77.4099C151.851 78.3417 152.37 79.0879 153.067 79.6485C153.771 80.2091 154.658 80.4894 155.726 80.4894Z" fill="black"/>
<path d="M139.754 82.9892V65.5347H143.152V82.9892H139.754ZM141.47 62.8415C140.879 62.8415 140.372 62.6445 139.947 62.2506C139.531 61.8491 139.322 61.3718 139.322 60.8188C139.322 60.2582 139.531 59.7809 139.947 59.3869C140.372 58.9854 140.879 58.7847 141.47 58.7847C142.061 58.7847 142.565 58.9854 142.981 59.3869C143.406 59.7809 143.618 60.2582 143.618 60.8188C143.618 61.3718 143.406 61.8491 142.981 62.2506C142.565 62.6445 142.061 62.8415 141.47 62.8415Z" fill="black"/>
<path d="M135.354 65.5348V68.2621H125.82V65.5348H135.354ZM128.377 61.353H131.775V77.8644C131.775 78.5235 131.873 79.0197 132.07 79.353C132.267 79.6788 132.521 79.9023 132.832 80.0235C133.15 80.1371 133.495 80.1939 133.866 80.1939C134.138 80.1939 134.377 80.175 134.582 80.1371C134.786 80.0992 134.945 80.0689 135.059 80.0462L135.673 82.853C135.476 82.9288 135.195 83.0045 134.832 83.0803C134.468 83.1636 134.013 83.2091 133.468 83.2167C132.574 83.2318 131.741 83.0727 130.968 82.7394C130.195 82.4061 129.57 81.8909 129.093 81.1939C128.616 80.497 128.377 79.622 128.377 78.5689V61.353Z" fill="black"/>
<path d="M113.427 83.3758C112.321 83.3758 111.321 83.1713 110.427 82.7622C109.533 82.3455 108.825 81.7432 108.302 80.9553C107.787 80.1675 107.529 79.2016 107.529 78.0576C107.529 77.0728 107.719 76.2622 108.097 75.6258C108.476 74.9894 108.988 74.4856 109.632 74.1144C110.276 73.7432 110.995 73.4629 111.791 73.2735C112.586 73.0841 113.397 72.9402 114.222 72.8417C115.268 72.7205 116.116 72.622 116.768 72.5463C117.419 72.4629 117.893 72.3303 118.188 72.1485C118.484 71.9667 118.632 71.6713 118.632 71.2622V71.1826C118.632 70.1902 118.351 69.4213 117.791 68.8758C117.238 68.3303 116.412 68.0576 115.313 68.0576C114.169 68.0576 113.268 68.3114 112.609 68.819C111.957 69.319 111.507 69.8758 111.257 70.4894L108.063 69.7622C108.442 68.7016 108.995 67.8455 109.722 67.194C110.457 66.5349 111.302 66.0576 112.257 65.7622C113.211 65.4591 114.215 65.3076 115.268 65.3076C115.965 65.3076 116.704 65.391 117.484 65.5576C118.272 65.7167 119.007 66.0122 119.688 66.444C120.378 66.8758 120.942 67.4932 121.382 68.2963C121.821 69.0917 122.041 70.1258 122.041 71.3985V82.9894H118.722V80.6031H118.586C118.366 81.0425 118.037 81.4743 117.597 81.8985C117.158 82.3228 116.594 82.675 115.904 82.9553C115.215 83.2356 114.389 83.3758 113.427 83.3758ZM114.166 80.6485C115.105 80.6485 115.908 80.4629 116.575 80.0917C117.249 79.7205 117.76 79.2356 118.109 78.6372C118.465 78.0311 118.643 77.3834 118.643 76.694V74.444C118.522 74.5652 118.287 74.6788 117.938 74.7849C117.597 74.8834 117.207 74.9705 116.768 75.0463C116.329 75.1144 115.901 75.1788 115.484 75.2394C115.067 75.2925 114.719 75.3379 114.438 75.3758C113.779 75.4591 113.177 75.5993 112.632 75.7963C112.094 75.9932 111.662 76.2773 111.336 76.6485C111.018 77.0122 110.859 77.497 110.859 78.1031C110.859 78.944 111.169 79.5803 111.791 80.0122C112.412 80.4364 113.204 80.6485 114.166 80.6485Z" fill="black"/>
<path d="M99.7346 75.7506V65.5347H103.144V82.9892H99.8027V79.9665H99.6209C99.2194 80.8983 98.5755 81.6748 97.6891 82.296C96.8103 82.9097 95.7156 83.2165 94.405 83.2165C93.2838 83.2165 92.2914 82.9703 91.4277 82.4778C90.5717 81.9778 89.8974 81.2392 89.405 80.2619C88.9202 79.2847 88.6777 78.0763 88.6777 76.6369V65.5347H92.0755V76.2278C92.0755 77.4172 92.405 78.3642 93.0641 79.0688C93.7232 79.7733 94.5792 80.1256 95.6323 80.1256C96.2686 80.1256 96.9012 79.9665 97.53 79.6483C98.1664 79.3301 98.6929 78.8491 99.1096 78.2051C99.5338 77.5612 99.7421 76.743 99.7346 75.7506Z" fill="black"/>
<path d="M80.0708 89.5349V80.2735H79.8663C79.6618 80.6447 79.3663 81.069 78.9799 81.5463C78.6011 82.0235 78.0784 82.4402 77.4118 82.7963C76.7451 83.1523 75.8815 83.3303 74.8208 83.3303C73.4118 83.3303 72.1542 82.9705 71.0481 82.2508C69.9496 81.5235 69.086 80.4894 68.4572 79.1485C67.836 77.8 67.5254 76.1826 67.5254 74.2963C67.5254 72.4099 67.8398 70.7963 68.4686 69.4553C69.1049 68.1144 69.9761 67.0879 71.0822 66.3758C72.1883 65.6637 73.4421 65.3076 74.8436 65.3076C75.9269 65.3076 76.7981 65.4894 77.4572 65.8531C78.1239 66.2091 78.639 66.6258 79.0027 67.1031C79.3739 67.5803 79.6618 68.0008 79.8663 68.3644H80.1504V65.5349H83.4686V89.5349H80.0708ZM75.5708 80.4326C76.5481 80.4326 77.3739 80.175 78.0481 79.6599C78.7299 79.1372 79.2451 78.4137 79.5936 77.4894C79.9496 76.5652 80.1277 75.4894 80.1277 74.2622C80.1277 73.05 79.9534 71.9894 79.6049 71.0803C79.2564 70.1713 78.7451 69.4629 78.0708 68.9553C77.3966 68.4478 76.5633 68.194 75.5708 68.194C74.5481 68.194 73.6958 68.4591 73.014 68.9894C72.3322 69.5197 71.8171 70.2432 71.4686 71.1599C71.1277 72.0766 70.9572 73.1106 70.9572 74.2622C70.9572 75.4288 71.1314 76.4781 71.4799 77.4099C71.8284 78.3417 72.3436 79.0803 73.0254 79.6258C73.7148 80.1637 74.5633 80.4326 75.5708 80.4326Z" fill="black"/>
<path d="M48.6387 82.989V59.7163H63.2296V62.739H52.15V69.8299H62.4682V72.8413H52.15V79.9663H63.3659V82.989H48.6387Z" fill="black"/>
<path d="M408.531 195.563V154.108H418.004V161.017H418.436C419.192 158.624 420.487 156.78 422.322 155.485C424.176 154.171 426.29 153.515 428.665 153.515C429.205 153.515 429.807 153.542 430.473 153.596C431.157 153.632 431.723 153.695 432.173 153.785V162.772C431.759 162.628 431.103 162.502 430.203 162.394C429.321 162.268 428.467 162.205 427.639 162.205C425.858 162.205 424.257 162.592 422.835 163.365C421.432 164.121 420.325 165.174 419.516 166.523C418.706 167.873 418.301 169.429 418.301 171.192V195.563H408.531Z" fill="black"/>
<path d="M380.375 196.373C376.327 196.373 372.819 195.482 369.85 193.701C366.881 191.92 364.578 189.428 362.941 186.225C361.321 183.022 360.512 179.28 360.512 174.998C360.512 170.716 361.321 166.964 362.941 163.744C364.578 160.523 366.881 158.022 369.85 156.241C372.819 154.459 376.327 153.569 380.375 153.569C384.424 153.569 387.932 154.459 390.901 156.241C393.87 158.022 396.164 160.523 397.783 163.744C399.42 166.964 400.239 170.716 400.239 174.998C400.239 179.28 399.42 183.022 397.783 186.225C396.164 189.428 393.87 191.92 390.901 193.701C387.932 195.482 384.424 196.373 380.375 196.373ZM380.429 188.546C382.624 188.546 384.46 187.943 385.935 186.738C387.41 185.514 388.508 183.877 389.228 181.826C389.965 179.775 390.334 177.49 390.334 174.971C390.334 172.434 389.965 170.14 389.228 168.089C388.508 166.02 387.41 164.373 385.935 163.15C384.46 161.926 382.624 161.315 380.429 161.315C378.18 161.315 376.309 161.926 374.816 163.15C373.34 164.373 372.234 166.02 371.496 168.089C370.776 170.14 370.417 172.434 370.417 174.971C370.417 177.49 370.776 179.775 371.496 181.826C372.234 183.877 373.34 185.514 374.816 186.738C376.309 187.943 378.18 188.546 380.429 188.546Z" fill="black"/>
<path d="M354.569 154.109V161.665H330.738V154.109H354.569ZM336.622 144.177H346.392V183.094C346.392 184.408 346.59 185.415 346.985 186.117C347.399 186.801 347.939 187.269 348.605 187.521C349.27 187.772 350.008 187.898 350.818 187.898C351.43 187.898 351.987 187.853 352.491 187.763C353.013 187.673 353.409 187.592 353.679 187.521L355.325 195.158C354.803 195.338 354.056 195.536 353.085 195.752C352.131 195.968 350.962 196.094 349.576 196.13C347.129 196.202 344.925 195.833 342.964 195.023C341.003 194.196 339.447 192.918 338.295 191.191C337.162 189.464 336.604 187.305 336.622 184.714V144.177Z" fill="black"/>
<path d="M308.086 196.373C303.948 196.373 300.395 195.464 297.426 193.647C294.475 191.83 292.199 189.32 290.598 186.117C289.014 182.896 288.223 179.19 288.223 174.998C288.223 170.788 289.032 167.072 290.652 163.852C292.271 160.613 294.556 158.094 297.507 156.295C300.475 154.477 303.984 153.569 308.032 153.569C311.397 153.569 314.375 154.19 316.966 155.431C319.574 156.655 321.653 158.391 323.2 160.64C324.747 162.871 325.629 165.48 325.845 168.467H316.507C316.129 166.469 315.229 164.805 313.808 163.474C312.404 162.124 310.524 161.45 308.167 161.45C306.17 161.45 304.416 161.989 302.904 163.069C301.393 164.13 300.215 165.66 299.369 167.657C298.541 169.654 298.127 172.047 298.127 174.836C298.127 177.661 298.541 180.09 299.369 182.123C300.197 184.138 301.357 185.694 302.851 186.792C304.362 187.871 306.134 188.411 308.167 188.411C309.607 188.411 310.893 188.141 312.027 187.602C313.178 187.044 314.141 186.243 314.914 185.2C315.688 184.156 316.219 182.887 316.507 181.394H325.845C325.611 184.327 324.747 186.927 323.254 189.194C321.761 191.443 319.727 193.206 317.154 194.484C314.582 195.743 311.559 196.373 308.086 196.373Z" fill="black"/>
<path d="M263.305 196.373C259.149 196.373 255.56 195.509 252.537 193.782C249.532 192.037 247.22 189.572 245.601 186.387C243.982 183.184 243.172 179.415 243.172 175.079C243.172 170.815 243.982 167.072 245.601 163.852C247.238 160.613 249.523 158.094 252.456 156.295C255.389 154.477 258.834 153.569 262.793 153.569C265.348 153.569 267.759 153.983 270.026 154.81C272.311 155.62 274.326 156.879 276.071 158.589C277.834 160.298 279.22 162.475 280.227 165.12C281.235 167.747 281.739 170.878 281.739 174.512V177.508H247.76V170.923H272.374C272.356 169.051 271.951 167.387 271.159 165.93C270.367 164.454 269.261 163.294 267.839 162.448C266.436 161.602 264.799 161.18 262.928 161.18C260.93 161.18 259.176 161.665 257.665 162.637C256.153 163.591 254.975 164.85 254.129 166.415C253.302 167.963 252.879 169.663 252.861 171.516V177.265C252.861 179.676 253.302 181.745 254.183 183.472C255.065 185.182 256.297 186.495 257.881 187.413C259.464 188.312 261.317 188.762 263.44 188.762C264.862 188.762 266.148 188.564 267.3 188.168C268.451 187.754 269.45 187.152 270.295 186.36C271.141 185.568 271.78 184.588 272.212 183.418L281.334 184.444C280.758 186.855 279.661 188.96 278.041 190.759C276.44 192.54 274.389 193.926 271.888 194.915C269.387 195.887 266.526 196.373 263.305 196.373Z" fill="black"/>
<path d="M208.411 171.273V195.563H198.641V154.109H207.979V161.153H208.464C209.418 158.832 210.938 156.987 213.026 155.62C215.131 154.253 217.731 153.569 220.825 153.569C223.686 153.569 226.178 154.181 228.301 155.404C230.442 156.628 232.098 158.4 233.267 160.721C234.455 163.042 235.039 165.858 235.021 169.168V195.563H225.251V170.68C225.251 167.909 224.532 165.741 223.092 164.175C221.671 162.61 219.701 161.827 217.182 161.827C215.473 161.827 213.952 162.205 212.621 162.961C211.307 163.699 210.273 164.769 209.517 166.173C208.779 167.576 208.411 169.276 208.411 171.273Z" fill="black"/>
<path d="M162.098 171.273V195.563H152.328V154.109H161.666V161.153H162.152C163.106 158.832 164.626 156.987 166.713 155.62C168.818 154.253 171.418 153.569 174.513 153.569C177.374 153.569 179.866 154.181 181.989 155.404C184.13 156.628 185.785 158.4 186.955 160.721C188.142 163.042 188.727 165.858 188.709 169.168V195.563H178.939V170.68C178.939 167.909 178.219 165.741 176.78 164.175C175.358 162.61 173.388 161.827 170.869 161.827C169.16 161.827 167.64 162.205 166.308 162.961C164.995 163.699 163.96 164.769 163.205 166.173C162.467 167.576 162.098 169.276 162.098 171.273Z" fill="black"/>
<path d="M124.172 196.373C120.124 196.373 116.615 195.482 113.647 193.701C110.678 191.92 108.375 189.428 106.738 186.225C105.118 183.022 104.309 179.28 104.309 174.998C104.309 170.716 105.118 166.964 106.738 163.744C108.375 160.523 110.678 158.022 113.647 156.241C116.615 154.459 120.124 153.569 124.172 153.569C128.221 153.569 131.729 154.459 134.698 156.241C137.667 158.022 139.961 160.523 141.58 163.744C143.217 166.964 144.036 170.716 144.036 174.998C144.036 179.28 143.217 183.022 141.58 186.225C139.961 189.428 137.667 191.92 134.698 193.701C131.729 195.482 128.221 196.373 124.172 196.373ZM124.226 188.546C126.421 188.546 128.257 187.943 129.732 186.738C131.207 185.514 132.305 183.877 133.025 181.826C133.762 179.775 134.131 177.49 134.131 174.971C134.131 172.434 133.762 170.14 133.025 168.089C132.305 166.02 131.207 164.373 129.732 163.15C128.257 161.926 126.421 161.315 124.226 161.315C121.977 161.315 120.106 161.926 118.613 163.15C117.137 164.373 116.031 166.02 115.293 168.089C114.573 170.14 114.213 172.434 114.213 174.971C114.213 177.49 114.573 179.775 115.293 181.826C116.031 183.877 117.137 185.514 118.613 186.738C120.106 187.943 121.977 188.546 124.226 188.546Z" fill="black"/>
<path d="M97.3532 158.939H87.2594C86.9715 157.284 86.4408 155.818 85.6671 154.54C84.8934 153.245 83.9308 152.147 82.7793 151.248C81.6278 150.348 80.3143 149.673 78.839 149.224C77.3816 148.756 75.8072 148.522 74.1159 148.522C71.1112 148.522 68.4483 149.278 66.1273 150.789C63.8063 152.282 61.9891 154.477 60.6756 157.374C59.3622 160.253 58.7054 163.77 58.7054 167.927C58.7054 172.155 59.3622 175.717 60.6756 178.614C62.007 181.493 63.8243 183.67 66.1273 185.145C68.4483 186.603 71.1022 187.332 74.089 187.332C75.7443 187.332 77.2916 187.116 78.731 186.684C80.1884 186.234 81.4928 185.577 82.6444 184.714C83.8139 183.85 84.7944 182.788 85.5861 181.529C86.3958 180.27 86.9535 178.83 87.2594 177.211L97.3532 177.265C96.9753 179.892 96.1567 182.357 94.8972 184.66C93.6557 186.963 92.0274 188.996 90.0123 190.759C87.9971 192.504 85.6401 193.872 82.9412 194.861C80.2424 195.833 77.2466 196.319 73.954 196.319C69.0961 196.319 64.7599 195.194 60.9455 192.945C57.1311 190.696 54.1264 187.448 51.9313 183.202C49.7362 178.956 48.6387 173.864 48.6387 167.927C48.6387 161.971 49.7452 156.879 51.9583 152.651C54.1713 148.405 57.1851 145.157 60.9995 142.908C64.8139 140.659 69.132 139.535 73.954 139.535C77.0307 139.535 79.8915 139.966 82.5364 140.83C85.1813 141.694 87.5383 142.962 89.6074 144.636C91.6766 146.291 93.3768 148.324 94.7083 150.735C96.0577 153.128 96.9393 155.863 97.3532 158.939Z" fill="black"/>
<text fill="#18191E" xml:space="preserve" style="white-space: pre" font-family="Inter" font-size="26" font-weight="500" letter-spacing="0.04em"><tspan x="48.6387" y="238.08">#1070</tspan></text>
<g opacity="0.7">
<path d="M444.208 345.49L329.256 404.253L215.33 344.47L330.282 286.844L444.208 345.49Z" stroke="black" stroke-width="5.07041" stroke-linejoin="bevel"/>
<path d="M212.323 490.853L328.56 547.182L329.386 547.123L329.387 405.354L217.82 346.719L214.013 345.131L212.323 345.983V490.853Z" stroke="black" stroke-width="5.07041" stroke-linejoin="bevel"/>
<path d="M445.562 346.308L447.239 347.098V491.282L330.948 547.229H330.435L330.291 544.774L330.291 404.967L441.276 347.822L445.562 346.308Z" stroke="black" stroke-width="5.07041" stroke-linejoin="bevel"/>
</g>
<path fill-rule="evenodd" clip-rule="evenodd" d="M303.299 439.467L238.149 405.616L238.409 422.219L303.559 456.07L303.299 439.467ZM303.299 472.844L238.149 438.993L238.409 455.596L303.559 489.447L303.299 472.844Z" fill="black"/>
<path fill-rule="evenodd" clip-rule="evenodd" d="M381.34 459.841L381.775 493.447L396.528 485.355L396.092 451.624L422.696 436.807L422.963 419.722L395.874 434.81L395.423 399.889L380.67 407.981L381.123 443.026L354.834 457.669L354.567 474.753L381.34 459.841Z" fill="black"/>
<path fill-rule="evenodd" clip-rule="evenodd" d="M334.789 345.998L385.381 335.465L368.531 327.793L339.469 333.824L346.719 314.967L335.035 308.139L323.999 337.035L274.488 347.311L291.084 355.098L319.348 349.213L312.332 367.584L323.896 374.333L334.789 345.998Z" fill="black"/>
</g>
<defs>
<linearGradient id="paint0_linear_15610_11998" x1="15.4729" y1="7.10308e-06" x2="471.595" y2="598.246" gradientUnits="userSpaceOnUse">
<stop offset="0.36276" stop-color="#60E7C6"/>
<stop offset="1" stop-color="#27B1FE"/>
</linearGradient>
<clipPath id="clip0_15610_11998">
<rect x="0.40625" width="500" height="600" rx="36" fill="white"/>
</clipPath>
</defs>
</svg>
