<svg width="501" height="600" viewBox="0 0 501 600" fill="none" xmlns="http://www.w3.org/2000/svg">
<g clip-path="url(#clip0_15610_11999)">
<rect x="0.5" width="500" height="600" rx="36" fill="url(#paint0_linear_15610_11999)"/>
<g opacity="0.7">
<path d="M444.86 344.788L330.37 403.549L216.902 343.768L331.392 286.144L444.86 344.788Z" stroke="black" stroke-width="5.07041" stroke-linejoin="bevel"/>
<path d="M213.915 490.154L329.682 546.48L330.492 546.422L330.492 404.65L219.372 346.016L215.589 344.431L213.915 345.279V490.154Z" stroke="black" stroke-width="5.07041" stroke-linejoin="bevel"/>
<path d="M446.211 345.608L447.872 346.393V490.583L332.05 546.528H331.554L331.41 544.072L331.41 404.263L441.95 347.119L446.211 345.608Z" stroke="black" stroke-width="5.07041" stroke-linejoin="bevel"/>
</g>
<path fill-rule="evenodd" clip-rule="evenodd" d="M273.145 349.738L341.499 315.183L357.119 323.27L288.703 357.734L273.145 349.738ZM304.199 366.444L373.326 331.689L389.244 340.017L320.422 375.063L304.199 366.444Z" fill="black"/>
<path fill-rule="evenodd" clip-rule="evenodd" d="M382.505 458.677L382.922 491.106L397.102 483.298L396.683 450.748L422.251 436.45L422.508 419.965L396.474 434.523L396.04 400.826L381.86 408.634L382.296 442.451L357.028 456.582L356.771 473.067L382.505 458.677Z" fill="black"/>
<path d="M286.719 419.579L245.31 464.918L257.822 472.293L299.095 426.883L286.719 419.579Z" fill="black"/>
<path d="M294.904 494.956L266.712 407.028L250.203 397.003L278.383 484.664L294.904 494.956Z" fill="black"/>
<path d="M407.352 82.989V59.7163H410.749V68.364H410.954C411.151 68.0004 411.435 67.5799 411.806 67.1027C412.177 66.6254 412.692 66.2087 413.352 65.8527C414.011 65.489 414.882 65.3072 415.965 65.3072C417.374 65.3072 418.632 65.6633 419.738 66.3754C420.844 67.0875 421.711 68.114 422.34 69.4549C422.977 70.7959 423.295 72.4095 423.295 74.2959C423.295 76.1822 422.98 77.7996 422.352 79.1481C421.723 80.489 420.859 81.5231 419.761 82.2504C418.662 82.9701 417.408 83.3299 415.999 83.3299C414.939 83.3299 414.071 83.1519 413.397 82.7959C412.73 82.4398 412.208 82.0231 411.829 81.5459C411.45 81.0686 411.158 80.6443 410.954 80.2731H410.67V82.989H407.352ZM410.681 74.2618C410.681 75.489 410.859 76.5648 411.215 77.489C411.571 78.4133 412.086 79.1368 412.761 79.6595C413.435 80.1746 414.261 80.4322 415.238 80.4322C416.253 80.4322 417.102 80.1633 417.783 79.6254C418.465 79.0799 418.98 78.3413 419.329 77.4095C419.685 76.4777 419.863 75.4284 419.863 74.2618C419.863 73.1102 419.689 72.0762 419.34 71.1595C418.999 70.2428 418.484 69.5193 417.795 68.989C417.113 68.4587 416.261 68.1936 415.238 68.1936C414.253 68.1936 413.42 68.4474 412.738 68.9549C412.064 69.4625 411.552 70.1709 411.204 71.0799C410.855 71.989 410.681 73.0496 410.681 74.2618Z" fill="black"/>
<path d="M398.465 75.7506V65.5347H401.874V82.9892H398.533V79.9665H398.351C397.95 80.8983 397.306 81.6748 396.42 82.296C395.541 82.9097 394.446 83.2165 393.135 83.2165C392.014 83.2165 391.022 82.9703 390.158 82.4778C389.302 81.9778 388.628 81.2392 388.135 80.2619C387.651 79.2847 387.408 78.0763 387.408 76.6369V65.5347H390.806V76.2278C390.806 77.4172 391.135 78.3642 391.795 79.0688C392.454 79.7733 393.31 80.1256 394.363 80.1256C394.999 80.1256 395.632 79.9665 396.26 79.6483C396.897 79.3301 397.423 78.8491 397.84 78.2051C398.264 77.5612 398.473 76.743 398.465 75.7506Z" fill="black"/>
<path d="M382.197 59.7163V82.989H378.799V59.7163H382.197Z" fill="black"/>
<path d="M374.23 67.2848H370.684C370.548 66.5272 370.294 65.8606 369.923 65.2848C369.552 64.709 369.097 64.2204 368.559 63.8189C368.022 63.4174 367.419 63.1143 366.753 62.9098C366.094 62.7053 365.393 62.603 364.65 62.603C363.309 62.603 362.109 62.9401 361.048 63.6143C359.995 64.2886 359.162 65.2772 358.548 66.5803C357.942 67.8833 357.639 69.4742 357.639 71.353C357.639 73.2469 357.942 74.8454 358.548 76.1484C359.162 77.4515 359.999 78.4363 361.059 79.103C362.12 79.7696 363.313 80.103 364.639 80.103C365.374 80.103 366.071 80.0045 366.73 79.8075C367.397 79.603 367.999 79.3037 368.537 78.9098C369.075 78.5159 369.529 78.0348 369.9 77.4666C370.279 76.8909 370.541 76.2318 370.684 75.4893L374.23 75.5007C374.041 76.6447 373.673 77.6977 373.128 78.6598C372.59 79.6143 371.897 80.4401 371.048 81.1371C370.207 81.8265 369.245 82.3606 368.162 82.7393C367.078 83.1181 365.897 83.3075 364.616 83.3075C362.601 83.3075 360.806 82.8303 359.23 81.8757C357.654 80.9136 356.412 79.5386 355.503 77.7507C354.601 75.9628 354.15 73.8303 354.15 71.353C354.15 68.8681 354.605 66.7356 355.514 64.9553C356.423 63.1674 357.666 61.7962 359.241 60.8416C360.817 59.8795 362.609 59.3984 364.616 59.3984C365.851 59.3984 367.003 59.5765 368.071 59.9325C369.147 60.281 370.113 60.7962 370.969 61.478C371.825 62.1522 372.533 62.978 373.094 63.9553C373.654 64.925 374.033 66.0348 374.23 67.2848Z" fill="black"/>
<path d="M340.803 69.7963L337.724 70.3417C337.595 69.9478 337.391 69.5728 337.11 69.2167C336.838 68.8606 336.466 68.569 335.997 68.3417C335.527 68.1144 334.94 68.0008 334.235 68.0008C333.273 68.0008 332.47 68.2167 331.826 68.6485C331.182 69.0728 330.86 69.622 330.86 70.2963C330.86 70.8796 331.076 71.3493 331.508 71.7053C331.94 72.0614 332.637 72.3531 333.599 72.5803L336.372 73.2167C337.978 73.5879 339.175 74.1599 339.963 74.9326C340.75 75.7053 341.144 76.7091 341.144 77.944C341.144 78.9894 340.841 79.9213 340.235 80.7394C339.637 81.55 338.8 82.1864 337.724 82.6485C336.656 83.1106 335.417 83.3417 334.008 83.3417C332.053 83.3417 330.459 82.925 329.224 82.0917C327.989 81.2508 327.231 80.0576 326.951 78.5122L330.235 78.0122C330.44 78.8682 330.86 79.5159 331.497 79.9553C332.133 80.3872 332.963 80.6031 333.985 80.6031C335.099 80.6031 335.989 80.372 336.656 79.9099C337.322 79.4402 337.656 78.8682 337.656 78.194C337.656 77.6485 337.451 77.1902 337.042 76.819C336.641 76.4478 336.023 76.1675 335.19 75.9781L332.235 75.3303C330.606 74.9591 329.402 74.3682 328.622 73.5576C327.849 72.747 327.463 71.7205 327.463 70.4781C327.463 69.4478 327.75 68.5463 328.326 67.7735C328.902 67.0008 329.697 66.3985 330.713 65.9667C331.728 65.5273 332.891 65.3076 334.201 65.3076C336.088 65.3076 337.572 65.7167 338.656 66.5349C339.739 67.3455 340.455 68.4326 340.803 69.7963Z" fill="black"/>
<path d="M314.803 82.9893V65.5348H318.087V68.3075H318.269C318.587 67.3681 319.147 66.6295 319.95 66.0916C320.761 65.5462 321.678 65.2734 322.7 65.2734C322.913 65.2734 323.163 65.281 323.45 65.2962C323.746 65.3113 323.977 65.3303 324.144 65.353V68.603C324.007 68.5651 323.765 68.5234 323.416 68.478C323.068 68.425 322.719 68.3984 322.371 68.3984C321.568 68.3984 320.852 68.5689 320.223 68.9098C319.602 69.2431 319.11 69.709 318.746 70.3075C318.382 70.8984 318.2 71.5727 318.2 72.3303V82.9893H314.803Z" fill="black"/>
<path d="M302.903 83.3417C301.183 83.3417 299.702 82.9743 298.459 82.2394C297.224 81.497 296.27 80.4553 295.596 79.1144C294.929 77.766 294.596 76.1864 294.596 74.3758C294.596 72.5879 294.929 71.0122 295.596 69.6485C296.27 68.2849 297.209 67.2205 298.414 66.4553C299.626 65.6902 301.043 65.3076 302.664 65.3076C303.649 65.3076 304.603 65.4705 305.528 65.7963C306.452 66.122 307.281 66.6334 308.016 67.3303C308.751 68.0273 309.331 68.9326 309.755 70.0463C310.179 71.1523 310.391 72.497 310.391 74.0803V75.2849H296.516V72.7394H307.062C307.062 71.8455 306.88 71.0538 306.516 70.3644C306.153 69.6675 305.641 69.1182 304.982 68.7167C304.331 68.3152 303.565 68.1144 302.687 68.1144C301.732 68.1144 300.899 68.3493 300.187 68.819C299.482 69.2811 298.937 69.8872 298.55 70.6372C298.171 71.3796 297.982 72.1864 297.982 73.0576V75.0463C297.982 76.2129 298.187 77.2053 298.596 78.0235C299.012 78.8417 299.592 79.4667 300.334 79.8985C301.077 80.3228 301.944 80.5349 302.937 80.5349C303.581 80.5349 304.168 80.444 304.698 80.2622C305.228 80.0728 305.687 79.7925 306.073 79.4213C306.459 79.05 306.755 78.5917 306.959 78.0463L310.175 78.6258C309.918 79.5728 309.456 80.4023 308.789 81.1144C308.13 81.819 307.3 82.3682 306.3 82.7622C305.308 83.1485 304.175 83.3417 302.903 83.3417Z" fill="black"/>
<path d="M281.243 83.3299C279.834 83.3299 278.576 82.9701 277.47 82.2504C276.372 81.5231 275.508 80.489 274.879 79.1481C274.258 77.7996 273.947 76.1822 273.947 74.2959C273.947 72.4095 274.262 70.7959 274.89 69.4549C275.527 68.114 276.398 67.0875 277.504 66.3754C278.61 65.6633 279.864 65.3072 281.265 65.3072C282.349 65.3072 283.22 65.489 283.879 65.8527C284.546 66.2087 285.061 66.6254 285.425 67.1027C285.796 67.5799 286.084 68.0004 286.288 68.364H286.493V59.7163H289.89V82.989H286.572V80.2731H286.288C286.084 80.6443 285.788 81.0686 285.402 81.5459C285.023 82.0231 284.5 82.4398 283.834 82.7959C283.167 83.1519 282.303 83.3299 281.243 83.3299ZM281.993 80.4322C282.97 80.4322 283.796 80.1746 284.47 79.6595C285.152 79.1368 285.667 78.4133 286.015 77.489C286.372 76.5648 286.55 75.489 286.55 74.2618C286.55 73.0496 286.375 71.989 286.027 71.0799C285.678 70.1709 285.167 69.4625 284.493 68.9549C283.818 68.4474 282.985 68.1936 281.993 68.1936C280.97 68.1936 280.118 68.4587 279.436 68.989C278.754 69.5193 278.239 70.2428 277.89 71.1595C277.55 72.0762 277.379 73.1102 277.379 74.2618C277.379 75.4284 277.553 76.4777 277.902 77.4095C278.25 78.3413 278.765 79.0799 279.447 79.6254C280.137 80.1633 280.985 80.4322 281.993 80.4322Z" fill="black"/>
<path d="M258.343 72.6258V82.9894H254.945V65.5349H258.207V68.3758H258.423C258.824 67.4516 259.453 66.7091 260.309 66.1485C261.173 65.5879 262.26 65.3076 263.57 65.3076C264.76 65.3076 265.801 65.5576 266.695 66.0576C267.589 66.55 268.282 67.2849 268.775 68.2622C269.267 69.2394 269.514 70.4478 269.514 71.8872V82.9894H266.116V72.2963C266.116 71.0311 265.786 70.0425 265.127 69.3303C264.468 68.6106 263.563 68.2508 262.411 68.2508C261.623 68.2508 260.923 68.4213 260.309 68.7622C259.703 69.1031 259.222 69.6031 258.866 70.2622C258.517 70.9137 258.343 71.7016 258.343 72.6258Z" fill="black"/>
<path d="M246.33 75.7506V65.5347H249.739V82.9892H246.398V79.9665H246.217C245.815 80.8983 245.171 81.6748 244.285 82.296C243.406 82.9097 242.311 83.2165 241.001 83.2165C239.88 83.2165 238.887 82.9703 238.023 82.4778C237.167 81.9778 236.493 81.2392 236.001 80.2619C235.516 79.2847 235.273 78.0763 235.273 76.6369V65.5347H238.671V76.2278C238.671 77.4172 239.001 78.3642 239.66 79.0688C240.319 79.7733 241.175 80.1256 242.228 80.1256C242.864 80.1256 243.497 79.9665 244.126 79.6483C244.762 79.3301 245.289 78.8491 245.705 78.2051C246.13 77.5612 246.338 76.743 246.33 75.7506Z" fill="black"/>
<path d="M222.705 83.3417C221.068 83.3417 219.64 82.9667 218.421 82.2167C217.201 81.4667 216.254 80.4175 215.58 79.069C214.905 77.7205 214.568 76.1447 214.568 74.3417C214.568 72.5311 214.905 70.9478 215.58 69.5917C216.254 68.2356 217.201 67.1826 218.421 66.4326C219.64 65.6826 221.068 65.3076 222.705 65.3076C224.341 65.3076 225.769 65.6826 226.989 66.4326C228.209 67.1826 229.155 68.2356 229.83 69.5917C230.504 70.9478 230.841 72.5311 230.841 74.3417C230.841 76.1447 230.504 77.7205 229.83 79.069C229.155 80.4175 228.209 81.4667 226.989 82.2167C225.769 82.9667 224.341 83.3417 222.705 83.3417ZM222.716 80.4894C223.777 80.4894 224.655 80.2091 225.352 79.6485C226.049 79.0879 226.565 78.3417 226.898 77.4099C227.239 76.4781 227.409 75.4516 227.409 74.3303C227.409 73.2167 227.239 72.194 226.898 71.2622C226.565 70.3228 226.049 69.569 225.352 69.0008C224.655 68.4326 223.777 68.1485 222.716 68.1485C221.648 68.1485 220.762 68.4326 220.057 69.0008C219.36 69.569 218.841 70.3228 218.5 71.2622C218.167 72.194 218 73.2167 218 74.3303C218 75.4516 218.167 76.4781 218.5 77.4099C218.841 78.3417 219.36 79.0879 220.057 79.6485C220.762 80.2091 221.648 80.4894 222.716 80.4894Z" fill="black"/>
<path d="M197.516 82.989V59.7163H211.947V62.739H201.027V69.8299H210.913V72.8413H201.027V82.989H197.516Z" fill="black"/>
<path d="M171.767 72.6258V82.9894H168.369V65.5349H171.631V68.3758H171.846C172.248 67.4516 172.877 66.7091 173.733 66.1485C174.596 65.5879 175.684 65.3076 176.994 65.3076C178.184 65.3076 179.225 65.5576 180.119 66.0576C181.013 66.55 181.706 67.2849 182.199 68.2622C182.691 69.2394 182.937 70.4478 182.937 71.8872V82.9894H179.54V72.2963C179.54 71.0311 179.21 70.0425 178.551 69.3303C177.892 68.6106 176.987 68.2508 175.835 68.2508C175.047 68.2508 174.346 68.4213 173.733 68.7622C173.127 69.1031 172.646 69.6031 172.29 70.2622C171.941 70.9137 171.767 71.7016 171.767 72.6258Z" fill="black"/>
<path d="M155.8 83.3417C154.164 83.3417 152.736 82.9667 151.516 82.2167C150.297 81.4667 149.35 80.4175 148.675 79.069C148.001 77.7205 147.664 76.1447 147.664 74.3417C147.664 72.5311 148.001 70.9478 148.675 69.5917C149.35 68.2356 150.297 67.1826 151.516 66.4326C152.736 65.6826 154.164 65.3076 155.8 65.3076C157.437 65.3076 158.865 65.6826 160.085 66.4326C161.304 67.1826 162.251 68.2356 162.925 69.5917C163.6 70.9478 163.937 72.5311 163.937 74.3417C163.937 76.1447 163.6 77.7205 162.925 79.069C162.251 80.4175 161.304 81.4667 160.085 82.2167C158.865 82.9667 157.437 83.3417 155.8 83.3417ZM155.812 80.4894C156.872 80.4894 157.751 80.2091 158.448 79.6485C159.145 79.0879 159.66 78.3417 159.994 77.4099C160.335 76.4781 160.505 75.4516 160.505 74.3303C160.505 73.2167 160.335 72.194 159.994 71.2622C159.66 70.3228 159.145 69.569 158.448 69.0008C157.751 68.4326 156.872 68.1485 155.812 68.1485C154.744 68.1485 153.857 68.4326 153.153 69.0008C152.456 69.569 151.937 70.3228 151.596 71.2622C151.263 72.194 151.096 73.2167 151.096 74.3303C151.096 75.4516 151.263 76.4781 151.596 77.4099C151.937 78.3417 152.456 79.0879 153.153 79.6485C153.857 80.2091 154.744 80.4894 155.812 80.4894Z" fill="black"/>
<path d="M139.84 82.9892V65.5347H143.238V82.9892H139.84ZM141.556 62.8415C140.965 62.8415 140.457 62.6445 140.033 62.2506C139.617 61.8491 139.408 61.3718 139.408 60.8188C139.408 60.2582 139.617 59.7809 140.033 59.3869C140.457 58.9854 140.965 58.7847 141.556 58.7847C142.147 58.7847 142.651 58.9854 143.067 59.3869C143.492 59.7809 143.704 60.2582 143.704 60.8188C143.704 61.3718 143.492 61.8491 143.067 62.2506C142.651 62.6445 142.147 62.8415 141.556 62.8415Z" fill="black"/>
<path d="M135.44 65.5348V68.2621H125.906V65.5348H135.44ZM128.463 61.353H131.861V77.8644C131.861 78.5235 131.959 79.0197 132.156 79.353C132.353 79.6788 132.607 79.9023 132.918 80.0235C133.236 80.1371 133.58 80.1939 133.952 80.1939C134.224 80.1939 134.463 80.175 134.668 80.1371C134.872 80.0992 135.031 80.0689 135.145 80.0462L135.759 82.853C135.562 82.9288 135.281 83.0045 134.918 83.0803C134.554 83.1636 134.099 83.2091 133.554 83.2167C132.66 83.2318 131.827 83.0727 131.054 82.7394C130.281 82.4061 129.656 81.8909 129.179 81.1939C128.702 80.497 128.463 79.622 128.463 78.5689V61.353Z" fill="black"/>
<path d="M113.513 83.3758C112.407 83.3758 111.407 83.1713 110.513 82.7622C109.619 82.3455 108.911 81.7432 108.388 80.9553C107.873 80.1675 107.615 79.2016 107.615 78.0576C107.615 77.0728 107.805 76.2622 108.183 75.6258C108.562 74.9894 109.074 74.4856 109.718 74.1144C110.361 73.7432 111.081 73.4629 111.877 73.2735C112.672 73.0841 113.483 72.9402 114.308 72.8417C115.354 72.7205 116.202 72.622 116.854 72.5463C117.505 72.4629 117.979 72.3303 118.274 72.1485C118.57 71.9667 118.718 71.6713 118.718 71.2622V71.1826C118.718 70.1902 118.437 69.4213 117.877 68.8758C117.324 68.3303 116.498 68.0576 115.399 68.0576C114.255 68.0576 113.354 68.3114 112.695 68.819C112.043 69.319 111.593 69.8758 111.343 70.4894L108.149 69.7622C108.528 68.7016 109.081 67.8455 109.808 67.194C110.543 66.5349 111.388 66.0576 112.343 65.7622C113.297 65.4591 114.301 65.3076 115.354 65.3076C116.051 65.3076 116.789 65.391 117.57 65.5576C118.358 65.7167 119.093 66.0122 119.774 66.444C120.464 66.8758 121.028 67.4932 121.468 68.2963C121.907 69.0917 122.127 70.1258 122.127 71.3985V82.9894H118.808V80.6031H118.672C118.452 81.0425 118.123 81.4743 117.683 81.8985C117.244 82.3228 116.68 82.675 115.99 82.9553C115.301 83.2356 114.475 83.3758 113.513 83.3758ZM114.252 80.6485C115.191 80.6485 115.994 80.4629 116.661 80.0917C117.335 79.7205 117.846 79.2356 118.195 78.6372C118.551 78.0311 118.729 77.3834 118.729 76.694V74.444C118.608 74.5652 118.373 74.6788 118.024 74.7849C117.683 74.8834 117.293 74.9705 116.854 75.0463C116.414 75.1144 115.986 75.1788 115.57 75.2394C115.153 75.2925 114.805 75.3379 114.524 75.3758C113.865 75.4591 113.263 75.5993 112.718 75.7963C112.18 75.9932 111.748 76.2773 111.422 76.6485C111.104 77.0122 110.945 77.497 110.945 78.1031C110.945 78.944 111.255 79.5803 111.877 80.0122C112.498 80.4364 113.289 80.6485 114.252 80.6485Z" fill="black"/>
<path d="M99.8205 75.7506V65.5347H103.23V82.9892H99.8887V79.9665H99.7069C99.3053 80.8983 98.6614 81.6748 97.775 82.296C96.8962 82.9097 95.8015 83.2165 94.4909 83.2165C93.3697 83.2165 92.3773 82.9703 91.5137 82.4778C90.6576 81.9778 89.9834 81.2392 89.4909 80.2619C89.0061 79.2847 88.7637 78.0763 88.7637 76.6369V65.5347H92.1614V76.2278C92.1614 77.4172 92.4909 78.3642 93.15 79.0688C93.8091 79.7733 94.6652 80.1256 95.7182 80.1256C96.3546 80.1256 96.9872 79.9665 97.6159 79.6483C98.2523 79.3301 98.7788 78.8491 99.1955 78.2051C99.6197 77.5612 99.8281 76.743 99.8205 75.7506Z" fill="black"/>
<path d="M80.1568 89.5349V80.2735H79.9522C79.7477 80.6447 79.4522 81.069 79.0659 81.5463C78.6871 82.0235 78.1644 82.4402 77.4977 82.7963C76.831 83.1523 75.9674 83.3303 74.9068 83.3303C73.4977 83.3303 72.2401 82.9705 71.1341 82.2508C70.0356 81.5235 69.1719 80.4894 68.5431 79.1485C67.9219 77.8 67.6113 76.1826 67.6113 74.2963C67.6113 72.4099 67.9257 70.7963 68.5545 69.4553C69.1909 68.1144 70.0621 67.0879 71.1681 66.3758C72.2742 65.6637 73.528 65.3076 74.9295 65.3076C76.0128 65.3076 76.8841 65.4894 77.5431 65.8531C78.2098 66.2091 78.725 66.6258 79.0886 67.1031C79.4598 67.5803 79.7477 68.0008 79.9522 68.3644H80.2363V65.5349H83.5545V89.5349H80.1568ZM75.6568 80.4326C76.6341 80.4326 77.4598 80.175 78.1341 79.6599C78.8159 79.1372 79.331 78.4137 79.6795 77.4894C80.0356 76.5652 80.2136 75.4894 80.2136 74.2622C80.2136 73.05 80.0394 71.9894 79.6909 71.0803C79.3424 70.1713 78.831 69.4629 78.1568 68.9553C77.4825 68.4478 76.6492 68.194 75.6568 68.194C74.6341 68.194 73.7818 68.4591 73.1 68.9894C72.4181 69.5197 71.903 70.2432 71.5545 71.1599C71.2136 72.0766 71.0431 73.1106 71.0431 74.2622C71.0431 75.4288 71.2174 76.4781 71.5659 77.4099C71.9144 78.3417 72.4295 79.0803 73.1113 79.6258C73.8007 80.1637 74.6492 80.4326 75.6568 80.4326Z" fill="black"/>
<path d="M48.7246 82.989V59.7163H63.3155V62.739H52.236V69.8299H62.5542V72.8413H52.236V79.9663H63.4519V82.989H48.7246Z" fill="black"/>
<path d="M323.348 194.808V153.353H332.821V160.262H333.252C334.008 157.869 335.304 156.025 337.139 154.729C338.992 153.416 341.106 152.759 343.481 152.759C344.021 152.759 344.624 152.786 345.289 152.84C345.973 152.876 346.54 152.939 346.99 153.029V162.016C346.576 161.872 345.919 161.746 345.02 161.639C344.138 161.513 343.283 161.45 342.456 161.45C340.674 161.45 339.073 161.836 337.652 162.61C336.248 163.366 335.142 164.418 334.332 165.768C333.522 167.117 333.118 168.674 333.118 170.437V194.808H323.348Z" fill="black"/>
<path d="M296.649 195.617C292.493 195.617 288.903 194.753 285.881 193.026C282.876 191.281 280.564 188.816 278.945 185.631C277.325 182.429 276.516 178.659 276.516 174.323C276.516 170.059 277.325 166.316 278.945 163.096C280.582 159.857 282.867 157.338 285.8 155.539C288.732 153.722 292.178 152.813 296.136 152.813C298.691 152.813 301.102 153.227 303.369 154.054C305.654 154.864 307.67 156.124 309.415 157.833C311.178 159.542 312.563 161.719 313.571 164.364C314.579 166.991 315.082 170.122 315.082 173.756V176.752H281.104V170.167H305.717C305.699 168.295 305.295 166.631 304.503 165.174C303.711 163.698 302.605 162.538 301.183 161.692C299.78 160.847 298.143 160.424 296.271 160.424C294.274 160.424 292.52 160.91 291.009 161.881C289.497 162.835 288.319 164.094 287.473 165.66C286.645 167.207 286.223 168.907 286.205 170.76V176.509C286.205 178.92 286.645 180.989 287.527 182.716C288.409 184.426 289.641 185.739 291.224 186.657C292.808 187.556 294.661 188.006 296.784 188.006C298.206 188.006 299.492 187.808 300.643 187.412C301.795 186.999 302.794 186.396 303.639 185.604C304.485 184.813 305.124 183.832 305.555 182.662L314.678 183.688C314.102 186.099 313.004 188.204 311.385 190.003C309.784 191.785 307.732 193.17 305.232 194.16C302.731 195.131 299.87 195.617 296.649 195.617Z" fill="black"/>
<path d="M230.857 194.807V139.535H240.627V160.208H241.032C241.536 159.2 242.247 158.13 243.164 156.996C244.082 155.845 245.323 154.864 246.889 154.055C248.454 153.227 250.451 152.813 252.88 152.813C256.083 152.813 258.971 153.632 261.544 155.269C264.134 156.888 266.186 159.29 267.697 162.475C269.226 165.642 269.991 169.528 269.991 174.134C269.991 178.686 269.244 182.555 267.751 185.739C266.258 188.924 264.224 191.353 261.651 193.026C259.079 194.699 256.164 195.536 252.907 195.536C250.532 195.536 248.562 195.14 246.997 194.349C245.431 193.557 244.172 192.603 243.218 191.488C242.283 190.354 241.554 189.284 241.032 188.276H240.465V194.807H230.857ZM240.438 174.08C240.438 176.761 240.816 179.109 241.572 181.124C242.346 183.139 243.452 184.714 244.892 185.847C246.349 186.963 248.112 187.52 250.181 187.52C252.34 187.52 254.149 186.945 255.606 185.793C257.063 184.624 258.161 183.031 258.899 181.016C259.654 178.983 260.032 176.671 260.032 174.08C260.032 171.507 259.663 169.222 258.926 167.225C258.188 165.228 257.09 163.663 255.633 162.529C254.176 161.395 252.358 160.829 250.181 160.829C248.094 160.829 246.322 161.377 244.865 162.475C243.407 163.573 242.301 165.111 241.545 167.09C240.807 169.069 240.438 171.399 240.438 174.08Z" fill="black"/>
<path d="M162.219 194.807V153.353H171.557V160.397H172.043C172.906 158.022 174.337 156.169 176.334 154.837C178.331 153.488 180.715 152.813 183.486 152.813C186.293 152.813 188.659 153.497 190.584 154.864C192.527 156.214 193.894 158.058 194.686 160.397H195.118C196.036 158.094 197.583 156.259 199.76 154.891C201.955 153.506 204.555 152.813 207.56 152.813C211.374 152.813 214.487 154.018 216.898 156.429C219.309 158.84 220.514 162.358 220.514 166.982V194.807H210.717V168.493C210.717 165.92 210.034 164.04 208.666 162.853C207.299 161.647 205.625 161.045 203.646 161.045C201.289 161.045 199.445 161.782 198.114 163.258C196.8 164.715 196.143 166.613 196.143 168.952V194.807H186.562V168.089C186.562 165.947 185.915 164.238 184.619 162.961C183.342 161.683 181.669 161.045 179.599 161.045C178.196 161.045 176.919 161.404 175.767 162.124C174.616 162.826 173.698 163.824 173.014 165.12C172.33 166.397 171.989 167.891 171.989 169.6V194.807H162.219Z" fill="black"/>
<path d="M135.52 195.617C131.364 195.617 127.774 194.753 124.752 193.026C121.747 191.281 119.435 188.816 117.816 185.631C116.196 182.429 115.387 178.659 115.387 174.323C115.387 170.059 116.196 166.316 117.816 163.096C119.453 159.857 121.738 157.338 124.671 155.539C127.604 153.722 131.049 152.813 135.007 152.813C137.562 152.813 139.973 153.227 142.24 154.054C144.525 154.864 146.541 156.124 148.286 157.833C150.049 159.542 151.435 161.719 152.442 164.364C153.45 166.991 153.953 170.122 153.953 173.756V176.752H119.975V170.167H144.588C144.57 168.295 144.166 166.631 143.374 165.174C142.582 163.698 141.476 162.538 140.054 161.692C138.651 160.847 137.014 160.424 135.142 160.424C133.145 160.424 131.391 160.91 129.88 161.881C128.368 162.835 127.19 164.094 126.344 165.66C125.516 167.207 125.094 168.907 125.076 170.76V176.509C125.076 178.92 125.516 180.989 126.398 182.716C127.28 184.426 128.512 185.739 130.096 186.657C131.679 187.556 133.532 188.006 135.655 188.006C137.077 188.006 138.363 187.808 139.515 187.412C140.666 186.999 141.665 186.396 142.51 185.604C143.356 184.813 143.995 183.832 144.426 182.662L153.549 183.688C152.973 186.099 151.875 188.204 150.256 190.003C148.655 191.785 146.604 193.17 144.103 194.16C141.602 195.131 138.741 195.617 135.52 195.617Z" fill="black"/>
<path d="M48.7246 139.535H60.9775L77.3865 179.586H78.0343L94.4434 139.535H106.696V194.807H97.0882V156.834H96.5755L81.2999 194.645H74.1209L58.8453 156.753H58.3326V194.807H48.7246V139.535Z" fill="black"/>
<text fill="#18191E" xml:space="preserve" style="white-space: pre" font-family="Inter" font-size="26" font-weight="500" letter-spacing="0.04em"><tspan x="49.7207" y="237.08">#13402</tspan></text>
</g>
<defs>
<linearGradient id="paint0_linear_15610_11999" x1="15.9729" y1="7.10308e-06" x2="472.095" y2="598.246" gradientUnits="userSpaceOnUse">
<stop offset="0.386196" stop-color="#D5FD0B"/>
<stop offset="1" stop-color="#29CB00"/>
</linearGradient>
<clipPath id="clip0_15610_11999">
<rect x="0.28125" width="500" height="600" rx="36" fill="white"/>
</clipPath>
</defs>
</svg>
