<svg width="501" height="600" viewBox="0 0 501 600" fill="none" xmlns="http://www.w3.org/2000/svg">
<g clip-path="url(#clip0_15610_11997)">
<rect width="500" height="600" rx="36" fill="url(#paint0_linear_15610_11997)"/>
<g opacity="0.7">
<path d="M444.382 345.49L329.43 404.253L215.503 344.47L330.456 286.844L444.382 345.49Z" stroke="black" stroke-width="5.07041" stroke-linejoin="bevel"/>
<path d="M212.498 490.853L328.735 547.182L329.562 547.123L329.562 405.354L217.996 346.719L214.188 345.131L212.498 345.983V490.853Z" stroke="black" stroke-width="5.07041" stroke-linejoin="bevel"/>
<path d="M445.736 346.308L447.413 347.098V491.282L331.122 547.229H330.609L330.465 544.774L330.465 404.967L441.45 347.822L445.736 346.308Z" stroke="black" stroke-width="5.07041" stroke-linejoin="bevel"/>
</g>
<path fill-rule="evenodd" clip-rule="evenodd" d="M357.926 437.892L423.075 404.042L422.816 420.645L357.666 454.495L357.926 437.892ZM357.926 471.269L423.075 437.419L422.816 454.022L357.666 487.872L357.926 471.269Z" fill="black"/>
<path fill-rule="evenodd" clip-rule="evenodd" d="M277.662 448.661L292.824 498.668L276.236 487.74L267.833 460.097L255.593 474.338L243.031 466.508L262.818 443.597L247.944 394.668L264.519 405.312L272.668 432.191L284.605 418.37L297.031 426.125L277.662 448.661Z" fill="black"/>
<path fill-rule="evenodd" clip-rule="evenodd" d="M346.137 340.742L375.103 356.121L358.731 364.301L330.009 348.922L301.053 363.609L284.766 354.989L313.999 340.35L291.595 328.355L307.459 320.206L330.158 332.258L354.169 320.234L370.151 328.562L346.137 340.742Z" fill="black"/>
<path d="M407.354 82.989V59.7163H410.751V68.364H410.956C411.153 68.0004 411.437 67.5799 411.808 67.1027C412.179 66.6254 412.694 66.2087 413.354 65.8527C414.013 65.489 414.884 65.3072 415.967 65.3072C417.376 65.3072 418.634 65.6633 419.74 66.3754C420.846 67.0875 421.713 68.114 422.342 69.4549C422.979 70.7959 423.297 72.4095 423.297 74.2959C423.297 76.1822 422.982 77.7996 422.354 79.1481C421.725 80.489 420.861 81.5231 419.763 82.2504C418.664 82.9701 417.41 83.3299 416.001 83.3299C414.941 83.3299 414.073 83.1519 413.399 82.7959C412.732 82.4398 412.21 82.0231 411.831 81.5459C411.452 81.0686 411.16 80.6443 410.956 80.2731H410.672V82.989H407.354ZM410.683 74.2618C410.683 75.489 410.861 76.5648 411.217 77.489C411.573 78.4133 412.088 79.1368 412.763 79.6595C413.437 80.1746 414.263 80.4322 415.24 80.4322C416.255 80.4322 417.104 80.1633 417.785 79.6254C418.467 79.0799 418.982 78.3413 419.331 77.4095C419.687 76.4777 419.865 75.4284 419.865 74.2618C419.865 73.1102 419.691 72.0762 419.342 71.1595C419.001 70.2428 418.486 69.5193 417.797 68.989C417.115 68.4587 416.263 68.1936 415.24 68.1936C414.255 68.1936 413.422 68.4474 412.74 68.9549C412.066 69.4625 411.554 70.1709 411.206 71.0799C410.857 71.989 410.683 73.0496 410.683 74.2618Z" fill="black"/>
<path d="M398.467 75.7506V65.5347H401.876V82.9892H398.535V79.9665H398.353C397.952 80.8983 397.308 81.6748 396.422 82.296C395.543 82.9097 394.448 83.2165 393.137 83.2165C392.016 83.2165 391.024 82.9703 390.16 82.4778C389.304 81.9778 388.63 81.2392 388.137 80.2619C387.653 79.2847 387.41 78.0763 387.41 76.6369V65.5347H390.808V76.2278C390.808 77.4172 391.137 78.3642 391.797 79.0688C392.456 79.7733 393.312 80.1256 394.365 80.1256C395.001 80.1256 395.634 79.9665 396.262 79.6483C396.899 79.3301 397.425 78.8491 397.842 78.2051C398.266 77.5612 398.475 76.743 398.467 75.7506Z" fill="black"/>
<path d="M382.199 59.7163V82.989H378.801V59.7163H382.199Z" fill="black"/>
<path d="M374.232 67.2848H370.686C370.55 66.5272 370.296 65.8606 369.925 65.2848C369.554 64.709 369.099 64.2204 368.561 63.8189C368.024 63.4174 367.421 63.1143 366.755 62.9098C366.096 62.7053 365.395 62.603 364.652 62.603C363.311 62.603 362.111 62.9401 361.05 63.6143C359.997 64.2886 359.164 65.2772 358.55 66.5803C357.944 67.8833 357.641 69.4742 357.641 71.353C357.641 73.2469 357.944 74.8454 358.55 76.1484C359.164 77.4515 360.001 78.4363 361.061 79.103C362.122 79.7696 363.315 80.103 364.641 80.103C365.376 80.103 366.073 80.0045 366.732 79.8075C367.399 79.603 368.001 79.3037 368.539 78.9098C369.077 78.5159 369.531 78.0348 369.902 77.4666C370.281 76.8909 370.542 76.2318 370.686 75.4893L374.232 75.5007C374.042 76.6447 373.675 77.6977 373.13 78.6598C372.592 79.6143 371.899 80.4401 371.05 81.1371C370.209 81.8265 369.247 82.3606 368.164 82.7393C367.08 83.1181 365.899 83.3075 364.618 83.3075C362.603 83.3075 360.808 82.8303 359.232 81.8757C357.656 80.9136 356.414 79.5386 355.505 77.7507C354.603 75.9628 354.152 73.8303 354.152 71.353C354.152 68.8681 354.607 66.7356 355.516 64.9553C356.425 63.1674 357.667 61.7962 359.243 60.8416C360.819 59.8795 362.611 59.3984 364.618 59.3984C365.853 59.3984 367.005 59.5765 368.073 59.9325C369.149 60.281 370.114 60.7962 370.971 61.478C371.827 62.1522 372.535 62.978 373.096 63.9553C373.656 64.925 374.035 66.0348 374.232 67.2848Z" fill="black"/>
<path d="M340.805 69.7963L337.726 70.3417C337.597 69.9478 337.393 69.5728 337.112 69.2167C336.839 68.8606 336.468 68.569 335.999 68.3417C335.529 68.1144 334.942 68.0008 334.237 68.0008C333.275 68.0008 332.472 68.2167 331.828 68.6485C331.184 69.0728 330.862 69.622 330.862 70.2963C330.862 70.8796 331.078 71.3493 331.51 71.7053C331.942 72.0614 332.639 72.3531 333.601 72.5803L336.374 73.2167C337.98 73.5879 339.177 74.1599 339.965 74.9326C340.752 75.7053 341.146 76.7091 341.146 77.944C341.146 78.9894 340.843 79.9213 340.237 80.7394C339.639 81.55 338.802 82.1864 337.726 82.6485C336.658 83.1106 335.419 83.3417 334.01 83.3417C332.055 83.3417 330.461 82.925 329.226 82.0917C327.991 81.2508 327.233 80.0576 326.953 78.5122L330.237 78.0122C330.442 78.8682 330.862 79.5159 331.499 79.9553C332.135 80.3872 332.964 80.6031 333.987 80.6031C335.101 80.6031 335.991 80.372 336.658 79.9099C337.324 79.4402 337.658 78.8682 337.658 78.194C337.658 77.6485 337.453 77.1902 337.044 76.819C336.643 76.4478 336.025 76.1675 335.192 75.9781L332.237 75.3303C330.608 74.9591 329.404 74.3682 328.624 73.5576C327.851 72.747 327.465 71.7205 327.465 70.4781C327.465 69.4478 327.752 68.5463 328.328 67.7735C328.904 67.0008 329.699 66.3985 330.715 65.9667C331.73 65.5273 332.893 65.3076 334.203 65.3076C336.089 65.3076 337.574 65.7167 338.658 66.5349C339.741 67.3455 340.457 68.4326 340.805 69.7963Z" fill="black"/>
<path d="M314.805 82.9893V65.5348H318.089V68.3075H318.271C318.589 67.3681 319.149 66.6295 319.952 66.0916C320.763 65.5462 321.68 65.2734 322.702 65.2734C322.915 65.2734 323.165 65.281 323.452 65.2962C323.748 65.3113 323.979 65.3303 324.146 65.353V68.603C324.009 68.5651 323.767 68.5234 323.418 68.478C323.07 68.425 322.721 68.3984 322.373 68.3984C321.57 68.3984 320.854 68.5689 320.225 68.9098C319.604 69.2431 319.112 69.709 318.748 70.3075C318.384 70.8984 318.202 71.5727 318.202 72.3303V82.9893H314.805Z" fill="black"/>
<path d="M302.904 83.3417C301.185 83.3417 299.704 82.9743 298.461 82.2394C297.226 81.497 296.272 80.4553 295.598 79.1144C294.931 77.766 294.598 76.1864 294.598 74.3758C294.598 72.5879 294.931 71.0122 295.598 69.6485C296.272 68.2849 297.211 67.2205 298.416 66.4553C299.628 65.6902 301.045 65.3076 302.666 65.3076C303.651 65.3076 304.605 65.4705 305.529 65.7963C306.454 66.122 307.283 66.6334 308.018 67.3303C308.753 68.0273 309.333 68.9326 309.757 70.0463C310.181 71.1523 310.393 72.497 310.393 74.0803V75.2849H296.518V72.7394H307.064C307.064 71.8455 306.882 71.0538 306.518 70.3644C306.154 69.6675 305.643 69.1182 304.984 68.7167C304.333 68.3152 303.567 68.1144 302.689 68.1144C301.734 68.1144 300.901 68.3493 300.189 68.819C299.484 69.2811 298.939 69.8872 298.552 70.6372C298.173 71.3796 297.984 72.1864 297.984 73.0576V75.0463C297.984 76.2129 298.189 77.2053 298.598 78.0235C299.014 78.8417 299.594 79.4667 300.336 79.8985C301.079 80.3228 301.946 80.5349 302.939 80.5349C303.582 80.5349 304.17 80.444 304.7 80.2622C305.23 80.0728 305.689 79.7925 306.075 79.4213C306.461 79.05 306.757 78.5917 306.961 78.0463L310.177 78.6258C309.92 79.5728 309.458 80.4023 308.791 81.1144C308.132 81.819 307.302 82.3682 306.302 82.7622C305.31 83.1485 304.177 83.3417 302.904 83.3417Z" fill="black"/>
<path d="M281.245 83.3299C279.836 83.3299 278.578 82.9701 277.472 82.2504C276.373 81.5231 275.51 80.489 274.881 79.1481C274.26 77.7996 273.949 76.1822 273.949 74.2959C273.949 72.4095 274.264 70.7959 274.892 69.4549C275.529 68.114 276.4 67.0875 277.506 66.3754C278.612 65.6633 279.866 65.3072 281.267 65.3072C282.351 65.3072 283.222 65.489 283.881 65.8527C284.548 66.2087 285.063 66.6254 285.426 67.1027C285.798 67.5799 286.086 68.0004 286.29 68.364H286.495V59.7163H289.892V82.989H286.574V80.2731H286.29C286.086 80.6443 285.79 81.0686 285.404 81.5459C285.025 82.0231 284.502 82.4398 283.836 82.7959C283.169 83.1519 282.305 83.3299 281.245 83.3299ZM281.995 80.4322C282.972 80.4322 283.798 80.1746 284.472 79.6595C285.154 79.1368 285.669 78.4133 286.017 77.489C286.373 76.5648 286.551 75.489 286.551 74.2618C286.551 73.0496 286.377 71.989 286.029 71.0799C285.68 70.1709 285.169 69.4625 284.495 68.9549C283.82 68.4474 282.987 68.1936 281.995 68.1936C280.972 68.1936 280.12 68.4587 279.438 68.989C278.756 69.5193 278.241 70.2428 277.892 71.1595C277.552 72.0762 277.381 73.1102 277.381 74.2618C277.381 75.4284 277.555 76.4777 277.904 77.4095C278.252 78.3413 278.767 79.0799 279.449 79.6254C280.139 80.1633 280.987 80.4322 281.995 80.4322Z" fill="black"/>
<path d="M258.345 72.6258V82.9894H254.947V65.5349H258.209V68.3758H258.425C258.826 67.4516 259.455 66.7091 260.311 66.1485C261.175 65.5879 262.262 65.3076 263.572 65.3076C264.762 65.3076 265.803 65.5576 266.697 66.0576C267.591 66.55 268.284 67.2849 268.777 68.2622C269.269 69.2394 269.515 70.4478 269.515 71.8872V82.9894H266.118V72.2963C266.118 71.0311 265.788 70.0425 265.129 69.3303C264.47 68.6106 263.565 68.2508 262.413 68.2508C261.625 68.2508 260.925 68.4213 260.311 68.7622C259.705 69.1031 259.224 69.6031 258.868 70.2622C258.519 70.9137 258.345 71.7016 258.345 72.6258Z" fill="black"/>
<path d="M246.332 75.7506V65.5347H249.741V82.9892H246.4V79.9665H246.219C245.817 80.8983 245.173 81.6748 244.287 82.296C243.408 82.9097 242.313 83.2165 241.003 83.2165C239.881 83.2165 238.889 82.9703 238.025 82.4778C237.169 81.9778 236.495 81.2392 236.003 80.2619C235.518 79.2847 235.275 78.0763 235.275 76.6369V65.5347H238.673V76.2278C238.673 77.4172 239.003 78.3642 239.662 79.0688C240.321 79.7733 241.177 80.1256 242.23 80.1256C242.866 80.1256 243.499 79.9665 244.128 79.6483C244.764 79.3301 245.291 78.8491 245.707 78.2051C246.131 77.5612 246.34 76.743 246.332 75.7506Z" fill="black"/>
<path d="M222.707 83.3417C221.07 83.3417 219.642 82.9667 218.423 82.2167C217.203 81.4667 216.256 80.4175 215.582 79.069C214.907 77.7205 214.57 76.1447 214.57 74.3417C214.57 72.5311 214.907 70.9478 215.582 69.5917C216.256 68.2356 217.203 67.1826 218.423 66.4326C219.642 65.6826 221.07 65.3076 222.707 65.3076C224.343 65.3076 225.771 65.6826 226.991 66.4326C228.21 67.1826 229.157 68.2356 229.832 69.5917C230.506 70.9478 230.843 72.5311 230.843 74.3417C230.843 76.1447 230.506 77.7205 229.832 79.069C229.157 80.4175 228.21 81.4667 226.991 82.2167C225.771 82.9667 224.343 83.3417 222.707 83.3417ZM222.718 80.4894C223.779 80.4894 224.657 80.2091 225.354 79.6485C226.051 79.0879 226.567 78.3417 226.9 77.4099C227.241 76.4781 227.411 75.4516 227.411 74.3303C227.411 73.2167 227.241 72.194 226.9 71.2622C226.567 70.3228 226.051 69.569 225.354 69.0008C224.657 68.4326 223.779 68.1485 222.718 68.1485C221.65 68.1485 220.763 68.4326 220.059 69.0008C219.362 69.569 218.843 70.3228 218.502 71.2622C218.169 72.194 218.002 73.2167 218.002 74.3303C218.002 75.4516 218.169 76.4781 218.502 77.4099C218.843 78.3417 219.362 79.0879 220.059 79.6485C220.763 80.2091 221.65 80.4894 222.718 80.4894Z" fill="black"/>
<path d="M197.518 82.989V59.7163H211.949V62.739H201.029V69.8299H210.915V72.8413H201.029V82.989H197.518Z" fill="black"/>
<path d="M171.769 72.6258V82.9894H168.371V65.5349H171.632V68.3758H171.848C172.25 67.4516 172.879 66.7091 173.735 66.1485C174.598 65.5879 175.685 65.3076 176.996 65.3076C178.185 65.3076 179.227 65.5576 180.121 66.0576C181.015 66.55 181.708 67.2849 182.201 68.2622C182.693 69.2394 182.939 70.4478 182.939 71.8872V82.9894H179.542V72.2963C179.542 71.0311 179.212 70.0425 178.553 69.3303C177.894 68.6106 176.989 68.2508 175.837 68.2508C175.049 68.2508 174.348 68.4213 173.735 68.7622C173.129 69.1031 172.648 69.6031 172.292 70.2622C171.943 70.9137 171.769 71.7016 171.769 72.6258Z" fill="black"/>
<path d="M155.802 83.3417C154.166 83.3417 152.738 82.9667 151.518 82.2167C150.299 81.4667 149.352 80.4175 148.677 79.069C148.003 77.7205 147.666 76.1447 147.666 74.3417C147.666 72.5311 148.003 70.9478 148.677 69.5917C149.352 68.2356 150.299 67.1826 151.518 66.4326C152.738 65.6826 154.166 65.3076 155.802 65.3076C157.439 65.3076 158.867 65.6826 160.086 66.4326C161.306 67.1826 162.253 68.2356 162.927 69.5917C163.602 70.9478 163.939 72.5311 163.939 74.3417C163.939 76.1447 163.602 77.7205 162.927 79.069C162.253 80.4175 161.306 81.4667 160.086 82.2167C158.867 82.9667 157.439 83.3417 155.802 83.3417ZM155.814 80.4894C156.874 80.4894 157.753 80.2091 158.45 79.6485C159.147 79.0879 159.662 78.3417 159.996 77.4099C160.336 76.4781 160.507 75.4516 160.507 74.3303C160.507 73.2167 160.336 72.194 159.996 71.2622C159.662 70.3228 159.147 69.569 158.45 69.0008C157.753 68.4326 156.874 68.1485 155.814 68.1485C154.746 68.1485 153.859 68.4326 153.155 69.0008C152.458 69.569 151.939 70.3228 151.598 71.2622C151.264 72.194 151.098 73.2167 151.098 74.3303C151.098 75.4516 151.264 76.4781 151.598 77.4099C151.939 78.3417 152.458 79.0879 153.155 79.6485C153.859 80.2091 154.746 80.4894 155.814 80.4894Z" fill="black"/>
<path d="M139.842 82.9892V65.5347H143.24V82.9892H139.842ZM141.558 62.8415C140.967 62.8415 140.459 62.6445 140.035 62.2506C139.618 61.8491 139.41 61.3718 139.41 60.8188C139.41 60.2582 139.618 59.7809 140.035 59.3869C140.459 58.9854 140.967 58.7847 141.558 58.7847C142.149 58.7847 142.653 58.9854 143.069 59.3869C143.493 59.7809 143.706 60.2582 143.706 60.8188C143.706 61.3718 143.493 61.8491 143.069 62.2506C142.653 62.6445 142.149 62.8415 141.558 62.8415Z" fill="black"/>
<path d="M135.442 65.5348V68.2621H125.908V65.5348H135.442ZM128.465 61.353H131.863V77.8644C131.863 78.5235 131.961 79.0197 132.158 79.353C132.355 79.6788 132.609 79.9023 132.92 80.0235C133.238 80.1371 133.582 80.1939 133.954 80.1939C134.226 80.1939 134.465 80.175 134.67 80.1371C134.874 80.0992 135.033 80.0689 135.147 80.0462L135.76 82.853C135.564 82.9288 135.283 83.0045 134.92 83.0803C134.556 83.1636 134.101 83.2091 133.556 83.2167C132.662 83.2318 131.829 83.0727 131.056 82.7394C130.283 82.4061 129.658 81.8909 129.181 81.1939C128.704 80.497 128.465 79.622 128.465 78.5689V61.353Z" fill="black"/>
<path d="M113.515 83.3758C112.409 83.3758 111.409 83.1713 110.515 82.7622C109.621 82.3455 108.913 81.7432 108.39 80.9553C107.875 80.1675 107.617 79.2016 107.617 78.0576C107.617 77.0728 107.807 76.2622 108.185 75.6258C108.564 74.9894 109.076 74.4856 109.719 74.1144C110.363 73.7432 111.083 73.4629 111.879 73.2735C112.674 73.0841 113.485 72.9402 114.31 72.8417C115.356 72.7205 116.204 72.622 116.856 72.5463C117.507 72.4629 117.981 72.3303 118.276 72.1485C118.572 71.9667 118.719 71.6713 118.719 71.2622V71.1826C118.719 70.1902 118.439 69.4213 117.879 68.8758C117.326 68.3303 116.5 68.0576 115.401 68.0576C114.257 68.0576 113.356 68.3114 112.697 68.819C112.045 69.319 111.594 69.8758 111.344 70.4894L108.151 69.7622C108.53 68.7016 109.083 67.8455 109.81 67.194C110.545 66.5349 111.39 66.0576 112.344 65.7622C113.299 65.4591 114.303 65.3076 115.356 65.3076C116.053 65.3076 116.791 65.391 117.572 65.5576C118.36 65.7167 119.094 66.0122 119.776 66.444C120.466 66.8758 121.03 67.4932 121.469 68.2963C121.909 69.0917 122.129 70.1258 122.129 71.3985V82.9894H118.81V80.6031H118.674C118.454 81.0425 118.125 81.4743 117.685 81.8985C117.246 82.3228 116.682 82.675 115.992 82.9553C115.303 83.2356 114.477 83.3758 113.515 83.3758ZM114.254 80.6485C115.193 80.6485 115.996 80.4629 116.663 80.0917C117.337 79.7205 117.848 79.2356 118.197 78.6372C118.553 78.0311 118.731 77.3834 118.731 76.694V74.444C118.61 74.5652 118.375 74.6788 118.026 74.7849C117.685 74.8834 117.295 74.9705 116.856 75.0463C116.416 75.1144 115.988 75.1788 115.572 75.2394C115.155 75.2925 114.807 75.3379 114.526 75.3758C113.867 75.4591 113.265 75.5993 112.719 75.7963C112.182 75.9932 111.75 76.2773 111.424 76.6485C111.106 77.0122 110.947 77.497 110.947 78.1031C110.947 78.944 111.257 79.5803 111.879 80.0122C112.5 80.4364 113.291 80.6485 114.254 80.6485Z" fill="black"/>
<path d="M99.8224 75.7506V65.5347H103.232V82.9892H99.8906V79.9665H99.7088C99.3073 80.8983 98.6634 81.6748 97.777 82.296C96.8982 82.9097 95.8035 83.2165 94.4929 83.2165C93.3717 83.2165 92.3793 82.9703 91.5156 82.4778C90.6596 81.9778 89.9853 81.2392 89.4929 80.2619C89.008 79.2847 88.7656 78.0763 88.7656 76.6369V65.5347H92.1634V76.2278C92.1634 77.4172 92.4929 78.3642 93.152 79.0688C93.8111 79.7733 94.6671 80.1256 95.7202 80.1256C96.3565 80.1256 96.9891 79.9665 97.6179 79.6483C98.2543 79.3301 98.7808 78.8491 99.1974 78.2051C99.6217 77.5612 99.83 76.743 99.8224 75.7506Z" fill="black"/>
<path d="M80.1587 89.5349V80.2735H79.9542C79.7496 80.6447 79.4542 81.069 79.0678 81.5463C78.689 82.0235 78.1663 82.4402 77.4996 82.7963C76.833 83.1523 75.9693 83.3303 74.9087 83.3303C73.4996 83.3303 72.2421 82.9705 71.136 82.2508C70.0375 81.5235 69.1739 80.4894 68.5451 79.1485C67.9239 77.8 67.6133 76.1826 67.6133 74.2963C67.6133 72.4099 67.9277 70.7963 68.5565 69.4553C69.1928 68.1144 70.064 67.0879 71.1701 66.3758C72.2762 65.6637 73.5299 65.3076 74.9315 65.3076C76.0148 65.3076 76.886 65.4894 77.5451 65.8531C78.2118 66.2091 78.7269 66.6258 79.0906 67.1031C79.4618 67.5803 79.7496 68.0008 79.9542 68.3644H80.2383V65.5349H83.5565V89.5349H80.1587ZM75.6587 80.4326C76.636 80.4326 77.4618 80.175 78.136 79.6599C78.8178 79.1372 79.333 78.4137 79.6815 77.4894C80.0375 76.5652 80.2156 75.4894 80.2156 74.2622C80.2156 73.05 80.0413 71.9894 79.6928 71.0803C79.3443 70.1713 78.833 69.4629 78.1587 68.9553C77.4845 68.4478 76.6512 68.194 75.6587 68.194C74.636 68.194 73.7837 68.4591 73.1019 68.9894C72.4201 69.5197 71.9049 70.2432 71.5565 71.1599C71.2156 72.0766 71.0451 73.1106 71.0451 74.2622C71.0451 75.4288 71.2193 76.4781 71.5678 77.4099C71.9163 78.3417 72.4315 79.0803 73.1133 79.6258C73.8027 80.1637 74.6512 80.4326 75.6587 80.4326Z" fill="black"/>
<path d="M48.7266 82.989V59.7163H63.3175V62.739H52.2379V69.8299H62.5561V72.8413H52.2379V79.9663H63.4538V82.989H48.7266Z" fill="black"/>
<path d="M383.636 156.025V163.581H359.805V156.025H383.636ZM365.688 146.093H375.458V185.01C375.458 186.324 375.656 187.331 376.052 188.033C376.466 188.717 377.005 189.185 377.671 189.437C378.337 189.688 379.075 189.814 379.884 189.814C380.496 189.814 381.054 189.769 381.558 189.679C382.079 189.589 382.475 189.508 382.745 189.437L384.391 197.074C383.87 197.254 383.123 197.452 382.151 197.668C381.198 197.884 380.028 198.01 378.643 198.046C376.196 198.118 373.992 197.749 372.031 196.939C370.069 196.112 368.513 194.834 367.362 193.107C366.228 191.38 365.67 189.221 365.688 186.63V146.093Z" fill="black"/>
<path d="M337.155 198.289C333.016 198.289 329.463 197.38 326.494 195.563C323.543 193.746 321.267 191.236 319.666 188.033C318.083 184.813 317.291 181.106 317.291 176.914C317.291 172.704 318.101 168.988 319.72 165.768C321.339 162.529 323.624 160.01 326.575 158.211C329.544 156.393 333.052 155.485 337.101 155.485C340.465 155.485 343.443 156.106 346.034 157.347C348.643 158.571 350.721 160.307 352.268 162.556C353.816 164.787 354.697 167.396 354.913 170.383H345.575C345.197 168.385 344.298 166.721 342.876 165.39C341.473 164.04 339.593 163.366 337.236 163.366C335.238 163.366 333.484 163.905 331.973 164.985C330.461 166.046 329.283 167.576 328.437 169.573C327.61 171.57 327.196 173.963 327.196 176.752C327.196 179.577 327.61 182.006 328.437 184.039C329.265 186.054 330.425 187.61 331.919 188.708C333.43 189.787 335.202 190.327 337.236 190.327C338.675 190.327 339.961 190.057 341.095 189.518C342.246 188.96 343.209 188.159 343.983 187.116C344.756 186.072 345.287 184.804 345.575 183.31H354.913C354.679 186.243 353.816 188.843 352.322 191.11C350.829 193.359 348.796 195.122 346.223 196.4C343.65 197.659 340.627 198.289 337.155 198.289Z" fill="black"/>
<path d="M292.374 198.289C288.218 198.289 284.628 197.425 281.605 195.698C278.601 193.953 276.289 191.488 274.669 188.303C273.05 185.1 272.24 181.331 272.24 176.995C272.24 172.731 273.05 168.988 274.669 165.768C276.307 162.529 278.592 160.01 281.524 158.211C284.457 156.393 287.903 155.485 291.861 155.485C294.416 155.485 296.827 155.899 299.094 156.726C301.379 157.536 303.394 158.795 305.139 160.505C306.903 162.214 308.288 164.391 309.296 167.036C310.303 169.663 310.807 172.794 310.807 176.428V179.424H276.828V172.839H301.442C301.424 170.967 301.019 169.303 300.227 167.846C299.436 166.37 298.329 165.21 296.908 164.364C295.504 163.518 293.867 163.096 291.996 163.096C289.999 163.096 288.245 163.581 286.733 164.553C285.222 165.507 284.043 166.766 283.198 168.331C282.37 169.879 281.947 171.579 281.929 173.432V179.181C281.929 181.592 282.37 183.661 283.252 185.388C284.133 187.098 285.366 188.411 286.949 189.329C288.532 190.228 290.386 190.678 292.509 190.678C293.93 190.678 295.217 190.48 296.368 190.084C297.52 189.67 298.518 189.068 299.364 188.276C300.209 187.484 300.848 186.504 301.28 185.334L310.402 186.36C309.826 188.771 308.729 190.876 307.11 192.675C305.508 194.456 303.457 195.842 300.956 196.831C298.455 197.803 295.594 198.289 292.374 198.289Z" fill="black"/>
<path d="M266.296 156.025V163.581H242.465V156.025H266.296ZM248.348 146.093H258.118V185.01C258.118 186.324 258.316 187.331 258.712 188.033C259.126 188.717 259.666 189.185 260.331 189.437C260.997 189.688 261.735 189.814 262.544 189.814C263.156 189.814 263.714 189.769 264.218 189.679C264.739 189.589 265.135 189.508 265.405 189.437L267.051 197.074C266.53 197.254 265.783 197.452 264.811 197.668C263.858 197.884 262.688 198.01 261.303 198.046C258.856 198.118 256.652 197.749 254.691 196.939C252.73 196.112 251.173 194.834 250.022 193.107C248.888 191.38 248.33 189.221 248.348 186.63V146.093Z" fill="black"/>
<path d="M225.779 197.479V156.025H235.549V197.479H225.779ZM230.691 150.141C229.144 150.141 227.812 149.628 226.697 148.603C225.581 147.559 225.023 146.309 225.023 144.851C225.023 143.376 225.581 142.126 226.697 141.1C227.812 140.056 229.144 139.535 230.691 139.535C232.256 139.535 233.588 140.056 234.685 141.1C235.801 142.126 236.359 143.376 236.359 144.851C236.359 146.309 235.801 147.559 234.685 148.603C233.588 149.628 232.256 150.141 230.691 150.141Z" fill="black"/>
<path d="M188.94 173.189V197.479H179.17V142.207H188.724V163.069H189.21C190.181 160.73 191.684 158.886 193.717 157.536C195.768 156.169 198.377 155.485 201.544 155.485C204.422 155.485 206.932 156.088 209.073 157.293C211.214 158.499 212.87 160.262 214.039 162.583C215.227 164.904 215.82 167.738 215.82 171.084V197.479H206.051V172.596C206.051 169.807 205.331 167.639 203.892 166.091C202.47 164.526 200.473 163.743 197.9 163.743C196.173 163.743 194.625 164.121 193.258 164.877C191.909 165.615 190.847 166.685 190.073 168.089C189.318 169.492 188.94 171.192 188.94 173.189Z" fill="black"/>
<path d="M153.389 198.289C149.251 198.289 145.697 197.38 142.729 195.563C139.778 193.746 137.502 191.236 135.9 188.033C134.317 184.813 133.525 181.106 133.525 176.914C133.525 172.704 134.335 168.988 135.954 165.768C137.574 162.529 139.859 160.01 142.809 158.211C145.778 156.393 149.287 155.485 153.335 155.485C156.7 155.485 159.677 156.106 162.268 157.347C164.877 158.571 166.955 160.307 168.503 162.556C170.05 164.787 170.932 167.396 171.148 170.383H161.809C161.432 168.385 160.532 166.721 159.111 165.39C157.707 164.04 155.827 163.366 153.47 163.366C151.473 163.366 149.719 163.905 148.207 164.985C146.696 166.046 145.517 167.576 144.672 169.573C143.844 171.57 143.43 173.963 143.43 176.752C143.43 179.577 143.844 182.006 144.672 184.039C145.499 186.054 146.66 187.61 148.153 188.708C149.665 189.787 151.437 190.327 153.47 190.327C154.909 190.327 156.196 190.057 157.329 189.518C158.481 188.96 159.443 188.159 160.217 187.116C160.991 186.072 161.522 184.804 161.809 183.31H171.148C170.914 186.243 170.05 188.843 168.557 191.11C167.063 193.359 165.03 195.122 162.457 196.4C159.884 197.659 156.862 198.289 153.389 198.289Z" fill="black"/>
<path d="M106.881 197.479V156.025H116.354V162.934H116.786C117.541 160.541 118.837 158.697 120.672 157.401C122.525 156.088 124.639 155.431 127.014 155.431C127.554 155.431 128.157 155.458 128.823 155.512C129.506 155.548 130.073 155.611 130.523 155.701V164.688C130.109 164.544 129.452 164.418 128.553 164.31C127.671 164.184 126.816 164.121 125.989 164.121C124.208 164.121 122.606 164.508 121.185 165.282C119.781 166.038 118.675 167.09 117.865 168.44C117.056 169.789 116.651 171.345 116.651 173.109V197.479H106.881Z" fill="black"/>
<path d="M59.4141 197.479H48.7266L68.1854 142.207H80.5462L100.032 197.479H89.3445L74.5817 153.542H74.1499L59.4141 197.479ZM59.7649 175.807H88.9126V183.85H59.7649V175.807Z" fill="black"/>
<text fill="#18191E" xml:space="preserve" style="white-space: pre" font-family="Inter" font-size="26" font-weight="500" letter-spacing="0.04em"><tspan x="48" y="239.955">#31</tspan></text>
</g>
<defs>
<linearGradient id="paint0_linear_15610_11997" x1="15.4729" y1="7.10308e-06" x2="471.595" y2="598.246" gradientUnits="userSpaceOnUse">
<stop offset="0.369792" stop-color="#C4AFFF"/>
<stop offset="1" stop-color="#6574FF"/>
</linearGradient>
<clipPath id="clip0_15610_11997">
<rect x="0.0253906" width="500" height="600" rx="36" fill="white"/>
</clipPath>
</defs>
</svg>
